M48
METRIC,LZ,000.000
;FILE_FORMAT=3:3
;TYPE=PLATED
;Layer: PTH_Through
;EasyEDA v6.5.46, 2025-07-23 17:24:06
;74a4e304ba1b453b8bde7bcb9ef7a0d0,7be8f16a26344db1bf46185b0a727cd7,10
;Gerber Generator version 0.2
;Holesize 1 = 0.306 mm
T01C0.306
;Holesize 2 = 1.000 mm
T02C1.000
%
G05
G90
T01
X030113Y070179
X031118Y060004
X022602Y075517
X028047Y058368
X019441Y064363
X030648Y062516
X021091Y058039
X020791Y054108
X021424Y067194
X027242Y064685
X021174Y056401
X027668Y065373
X023085Y055852
X022435Y060770
X022556Y066434
X032639Y064705
X027991Y060971
X031883Y063286
X018918Y058057
X029814Y068199
X028634Y068146
X028014Y063417
X031891Y062457
T02
X025781Y066421
X025781Y061087
X019939Y066929
X019939Y060833
M30
