G04 Layer: TopSilkscreenLayer*
G04 EasyEDA v6.5.46, 2025-07-23 17:24:06*
G04 74a4e304ba1b453b8bde7bcb9ef7a0d0,7be8f16a26344db1bf46185b0a727cd7,10*
G04 Gerber Generator version 0.2*
G04 Scale: 100 percent, Rotated: No, Reflected: No *
G04 Dimensions in millimeters *
G04 leading zeros omitted , absolute positions ,4 integer and 5 decimal *
%FSLAX45Y45*%
%MOMM*%

%ADD10C,0.1524*%

%LPD*%
D10*
X2501900Y6839712D02*
G01*
X2501900Y6772910D01*
X2546350Y6839712D02*
G01*
X2546350Y6772910D01*
X2501900Y6807962D02*
G01*
X2546350Y6807962D01*
X2567431Y6839712D02*
G01*
X2567431Y6772910D01*
X2567431Y6839712D02*
G01*
X2608834Y6839712D01*
X2567431Y6807962D02*
G01*
X2592831Y6807962D01*
X2567431Y6772910D02*
G01*
X2608834Y6772910D01*
X2655315Y6839712D02*
G01*
X2629915Y6772910D01*
X2655315Y6839712D02*
G01*
X2680715Y6772910D01*
X2639313Y6795262D02*
G01*
X2671063Y6795262D01*
X2723895Y6839712D02*
G01*
X2723895Y6772910D01*
X2701797Y6839712D02*
G01*
X2746247Y6839712D01*
X1712721Y6732015D02*
G01*
X1712721Y6623050D01*
X1676400Y6732015D02*
G01*
X1749044Y6732015D01*
X1783334Y6732015D02*
G01*
X1783334Y6623050D01*
X1783334Y6732015D02*
G01*
X1819910Y6732015D01*
X1835404Y6726936D01*
X1845818Y6716521D01*
X1850897Y6706108D01*
X1856231Y6690360D01*
X1856231Y6664452D01*
X1850897Y6648958D01*
X1845818Y6638544D01*
X1835404Y6628129D01*
X1819910Y6623050D01*
X1783334Y6623050D01*
X2247874Y6668434D02*
G01*
X2247874Y6559468D01*
X2320518Y6668434D02*
G01*
X2320518Y6559468D01*
X2247874Y6616618D02*
G01*
X2320518Y6616618D01*
X2354808Y6647860D02*
G01*
X2365222Y6652940D01*
X2380970Y6668434D01*
X2380970Y6559468D01*
X1649984Y7328408D02*
G01*
X1649984Y7219442D01*
X1722628Y7328408D02*
G01*
X1722628Y7219442D01*
X1649984Y7276592D02*
G01*
X1722628Y7276592D01*
X1762252Y7302500D02*
G01*
X1762252Y7307834D01*
X1767331Y7318247D01*
X1772665Y7323328D01*
X1783079Y7328408D01*
X1803907Y7328408D01*
X1814068Y7323328D01*
X1819402Y7318247D01*
X1824481Y7307834D01*
X1824481Y7297420D01*
X1819402Y7287005D01*
X1808987Y7271258D01*
X1756918Y7219442D01*
X1829815Y7219442D01*
X2949956Y7328408D02*
G01*
X2949956Y7219442D01*
X3022854Y7328408D02*
G01*
X3022854Y7219442D01*
X2949956Y7276592D02*
G01*
X3022854Y7276592D01*
X3067304Y7328408D02*
G01*
X3124454Y7328408D01*
X3093465Y7287005D01*
X3108959Y7287005D01*
X3119374Y7281671D01*
X3124454Y7276592D01*
X3129788Y7261097D01*
X3129788Y7250684D01*
X3124454Y7234936D01*
X3114293Y7224521D01*
X3098545Y7219442D01*
X3083052Y7219442D01*
X3067304Y7224521D01*
X3062224Y7229855D01*
X3057143Y7240270D01*
X1649984Y6028436D02*
G01*
X1649984Y5919470D01*
X1722628Y6028436D02*
G01*
X1722628Y5919470D01*
X1649984Y5976620D02*
G01*
X1722628Y5976620D01*
X1808987Y6028436D02*
G01*
X1756918Y5955792D01*
X1834895Y5955792D01*
X1808987Y6028436D02*
G01*
X1808987Y5919470D01*
X2949956Y6028436D02*
G01*
X2949956Y5919470D01*
X3022854Y6028436D02*
G01*
X3022854Y5919470D01*
X2949956Y5976620D02*
G01*
X3022854Y5976620D01*
X3119374Y6028436D02*
G01*
X3067304Y6028436D01*
X3062224Y5981700D01*
X3067304Y5987034D01*
X3083052Y5992113D01*
X3098545Y5992113D01*
X3114293Y5987034D01*
X3124454Y5976620D01*
X3129788Y5960871D01*
X3129788Y5950712D01*
X3124454Y5934963D01*
X3114293Y5924550D01*
X3098545Y5919470D01*
X3083052Y5919470D01*
X3067304Y5924550D01*
X3062224Y5929884D01*
X3057143Y5940297D01*
X2752343Y5268721D02*
G01*
X2741929Y5279136D01*
X2726436Y5284215D01*
X2705608Y5284215D01*
X2690113Y5279136D01*
X2679700Y5268721D01*
X2679700Y5258307D01*
X2684779Y5247894D01*
X2690113Y5242560D01*
X2700527Y5237479D01*
X2731770Y5227065D01*
X2741929Y5221986D01*
X2747263Y5216652D01*
X2752343Y5206237D01*
X2752343Y5190744D01*
X2741929Y5180329D01*
X2726436Y5175250D01*
X2705608Y5175250D01*
X2690113Y5180329D01*
X2679700Y5190744D01*
X2786634Y5263387D02*
G01*
X2797047Y5268721D01*
X2812795Y5284215D01*
X2812795Y5175250D01*
X1291844Y6068821D02*
G01*
X1281429Y6079236D01*
X1265936Y6084315D01*
X1245107Y6084315D01*
X1229613Y6079236D01*
X1219200Y6068821D01*
X1219200Y6058407D01*
X1224279Y6047994D01*
X1229613Y6042660D01*
X1240028Y6037579D01*
X1271270Y6027165D01*
X1281429Y6022086D01*
X1286763Y6016752D01*
X1291844Y6006337D01*
X1291844Y5990844D01*
X1281429Y5980429D01*
X1265936Y5975350D01*
X1245107Y5975350D01*
X1229613Y5980429D01*
X1219200Y5990844D01*
X1331468Y6058407D02*
G01*
X1331468Y6063487D01*
X1336547Y6073902D01*
X1341881Y6079236D01*
X1352295Y6084315D01*
X1372870Y6084315D01*
X1383284Y6079236D01*
X1388618Y6073902D01*
X1393697Y6063487D01*
X1393697Y6053073D01*
X1388618Y6042660D01*
X1378204Y6027165D01*
X1326134Y5975350D01*
X1399031Y5975350D01*
X1952243Y7516621D02*
G01*
X1941829Y7527036D01*
X1926336Y7532115D01*
X1905507Y7532115D01*
X1890013Y7527036D01*
X1879600Y7516621D01*
X1879600Y7506208D01*
X1884679Y7495794D01*
X1890013Y7490460D01*
X1900428Y7485379D01*
X1931670Y7474965D01*
X1941829Y7469886D01*
X1947163Y7464552D01*
X1952243Y7454137D01*
X1952243Y7438644D01*
X1941829Y7428229D01*
X1926336Y7423150D01*
X1905507Y7423150D01*
X1890013Y7428229D01*
X1879600Y7438644D01*
X1996947Y7532115D02*
G01*
X2054097Y7532115D01*
X2023109Y7490460D01*
X2038604Y7490460D01*
X2049018Y7485379D01*
X2054097Y7480300D01*
X2059431Y7464552D01*
X2059431Y7454137D01*
X2054097Y7438644D01*
X2043684Y7428229D01*
X2028190Y7423150D01*
X2012695Y7423150D01*
X1996947Y7428229D01*
X1991868Y7433310D01*
X1986534Y7443723D01*
X3247643Y6322821D02*
G01*
X3237229Y6333236D01*
X3221736Y6338315D01*
X3200908Y6338315D01*
X3185413Y6333236D01*
X3175000Y6322821D01*
X3175000Y6312407D01*
X3180079Y6301994D01*
X3185413Y6296660D01*
X3195827Y6291579D01*
X3227070Y6281165D01*
X3237229Y6276086D01*
X3242563Y6270752D01*
X3247643Y6260337D01*
X3247643Y6244844D01*
X3237229Y6234429D01*
X3221736Y6229350D01*
X3200908Y6229350D01*
X3185413Y6234429D01*
X3175000Y6244844D01*
X3334004Y6338315D02*
G01*
X3281934Y6265671D01*
X3359911Y6265671D01*
X3334004Y6338315D02*
G01*
X3334004Y6229350D01*
X2372591Y6512526D02*
G01*
X2227348Y6512526D01*
X2227348Y6409364D01*
X2372591Y6207285D02*
G01*
X2227348Y6207285D01*
X2227348Y6310447D01*
X2372591Y6405445D02*
G01*
X2372591Y6314366D01*
X1722605Y7162512D02*
G01*
X1577362Y7162512D01*
X1577362Y7059350D01*
X1722605Y6857271D02*
G01*
X1577362Y6857271D01*
X1577362Y6960433D01*
X1722605Y7055431D02*
G01*
X1722605Y6964352D01*
X3022577Y7162512D02*
G01*
X2877334Y7162512D01*
X2877334Y7059350D01*
X3022577Y6857271D02*
G01*
X2877334Y6857271D01*
X2877334Y6960433D01*
X3022577Y7055431D02*
G01*
X3022577Y6964352D01*
X1722605Y5862540D02*
G01*
X1577362Y5862540D01*
X1577362Y5759378D01*
X1722605Y5557299D02*
G01*
X1577362Y5557299D01*
X1577362Y5660461D01*
X1722605Y5755459D02*
G01*
X1722605Y5664380D01*
X3022577Y5862540D02*
G01*
X2877334Y5862540D01*
X2877334Y5759378D01*
X3022577Y5557299D02*
G01*
X2877334Y5557299D01*
X2877334Y5660461D01*
X3022577Y5755459D02*
G01*
X3022577Y5664380D01*
M02*
