G04 Layer: TopLayer*
G04 EasyEDA v6.5.46, 2025-07-23 17:24:06*
G04 74a4e304ba1b453b8bde7bcb9ef7a0d0,7be8f16a26344db1bf46185b0a727cd7,10*
G04 Gerber Generator version 0.2*
G04 Scale: 100 percent, Rotated: No, Reflected: No *
G04 Dimensions in millimeters *
G04 leading zeros omitted , absolute positions ,4 integer and 5 decimal *
%FSLAX45Y45*%
%MOMM*%

%ADD10C,0.2540*%
%ADD11R,2.0000X2.0000*%
%ADD12R,1.2500X0.7000*%
%ADD13C,2.0000*%
%ADD14C,0.6100*%
%ADD15C,0.0114*%

%LPD*%
G36*
X1222197Y5075174D02*
G01*
X1217879Y5076139D01*
X1214424Y5078831D01*
X1212392Y5082743D01*
X1212189Y5087162D01*
X1213916Y5091226D01*
X1217218Y5094173D01*
X1222603Y5095544D01*
X1240383Y5098796D01*
X1257808Y5103876D01*
X1274572Y5110683D01*
X1290523Y5119217D01*
X1305560Y5129326D01*
X1319479Y5140909D01*
X1332128Y5153863D01*
X1343355Y5168087D01*
X1353058Y5183378D01*
X1361186Y5199532D01*
X1367536Y5216499D01*
X1372158Y5234025D01*
X1374952Y5251907D01*
X1375867Y5269992D01*
X1374952Y5288076D01*
X1372158Y5305958D01*
X1367536Y5323484D01*
X1361186Y5340451D01*
X1353058Y5356606D01*
X1343355Y5371896D01*
X1332128Y5386120D01*
X1319479Y5399074D01*
X1305560Y5410657D01*
X1290523Y5420766D01*
X1274572Y5429300D01*
X1257808Y5436108D01*
X1240383Y5441188D01*
X1222603Y5444439D01*
X1204518Y5445810D01*
X1186434Y5445353D01*
X1168450Y5443016D01*
X1150823Y5438902D01*
X1133754Y5432907D01*
X1117346Y5425236D01*
X1101801Y5415940D01*
X1087323Y5405069D01*
X1074013Y5392775D01*
X1062075Y5379161D01*
X1051560Y5364378D01*
X1042669Y5348630D01*
X1037488Y5336844D01*
X1035253Y5333593D01*
X1031951Y5331460D01*
X1028090Y5330748D01*
X1024229Y5331561D01*
X1020978Y5333746D01*
X1018794Y5337048D01*
X1018032Y5340908D01*
X1018032Y7379055D01*
X1018794Y7382916D01*
X1020978Y7386218D01*
X1024229Y7388402D01*
X1028090Y7389215D01*
X1031951Y7388504D01*
X1035253Y7386370D01*
X1037488Y7383119D01*
X1042669Y7371334D01*
X1051560Y7355586D01*
X1062075Y7340803D01*
X1074013Y7327188D01*
X1087323Y7314895D01*
X1101801Y7304024D01*
X1117346Y7294727D01*
X1133754Y7287056D01*
X1150823Y7281062D01*
X1168450Y7276947D01*
X1186434Y7274610D01*
X1204518Y7274153D01*
X1222603Y7275525D01*
X1240383Y7278776D01*
X1257808Y7283856D01*
X1274572Y7290663D01*
X1290523Y7299198D01*
X1305560Y7309307D01*
X1319479Y7320889D01*
X1332128Y7333843D01*
X1343355Y7348067D01*
X1353058Y7363358D01*
X1361186Y7379512D01*
X1367536Y7396480D01*
X1372158Y7414006D01*
X1374952Y7431887D01*
X1375867Y7449972D01*
X1374952Y7468057D01*
X1372158Y7485938D01*
X1367536Y7503464D01*
X1361186Y7520431D01*
X1353058Y7536586D01*
X1343355Y7551877D01*
X1332128Y7566101D01*
X1319479Y7579055D01*
X1305560Y7590637D01*
X1290523Y7600746D01*
X1283665Y7604404D01*
X1280312Y7607350D01*
X1278483Y7611414D01*
X1278585Y7615834D01*
X1280617Y7619847D01*
X1284122Y7622590D01*
X1288440Y7623556D01*
X3291179Y7623556D01*
X3295446Y7622641D01*
X3298951Y7619949D01*
X3300984Y7616088D01*
X3301237Y7611770D01*
X3299612Y7607706D01*
X3296412Y7604709D01*
X3281832Y7595920D01*
X3267303Y7585049D01*
X3254044Y7572756D01*
X3242056Y7559141D01*
X3231591Y7544358D01*
X3222650Y7528610D01*
X3215436Y7511999D01*
X3209899Y7494778D01*
X3206191Y7477048D01*
X3204362Y7459014D01*
X3204362Y7440930D01*
X3206191Y7422896D01*
X3209899Y7405166D01*
X3215436Y7387945D01*
X3222650Y7371334D01*
X3231591Y7355586D01*
X3242056Y7340803D01*
X3254044Y7327188D01*
X3267303Y7314895D01*
X3281832Y7304024D01*
X3297326Y7294727D01*
X3313734Y7287056D01*
X3330854Y7281062D01*
X3348482Y7276947D01*
X3366414Y7274610D01*
X3384550Y7274153D01*
X3402584Y7275525D01*
X3420414Y7278776D01*
X3437788Y7283856D01*
X3454552Y7290663D01*
X3470554Y7299198D01*
X3485591Y7309307D01*
X3499459Y7320889D01*
X3512108Y7333843D01*
X3523386Y7348067D01*
X3533089Y7363358D01*
X3541166Y7379512D01*
X3546500Y7393635D01*
X3548634Y7397038D01*
X3551885Y7399324D01*
X3555796Y7400188D01*
X3559759Y7399477D01*
X3563112Y7397292D01*
X3565347Y7393990D01*
X3566160Y7390028D01*
X3566160Y5329936D01*
X3565347Y5325973D01*
X3563112Y5322671D01*
X3559759Y5320487D01*
X3555796Y5319776D01*
X3551885Y5320639D01*
X3548634Y5322925D01*
X3546500Y5326329D01*
X3541166Y5340451D01*
X3533089Y5356606D01*
X3523386Y5371896D01*
X3512108Y5386120D01*
X3499459Y5399074D01*
X3485591Y5410657D01*
X3470554Y5420766D01*
X3454552Y5429300D01*
X3437788Y5436108D01*
X3420414Y5441188D01*
X3402584Y5444439D01*
X3384550Y5445810D01*
X3366414Y5445353D01*
X3348482Y5443016D01*
X3330854Y5438902D01*
X3313734Y5432907D01*
X3297326Y5425236D01*
X3281832Y5415940D01*
X3267303Y5405069D01*
X3254044Y5392775D01*
X3242056Y5379161D01*
X3231591Y5364378D01*
X3222650Y5348630D01*
X3215436Y5332018D01*
X3209899Y5314797D01*
X3206191Y5297068D01*
X3204362Y5279034D01*
X3204362Y5260949D01*
X3206191Y5242915D01*
X3209899Y5225186D01*
X3215436Y5207965D01*
X3222650Y5191353D01*
X3231591Y5175605D01*
X3242056Y5160822D01*
X3254044Y5147208D01*
X3267303Y5134914D01*
X3281832Y5124043D01*
X3297326Y5114747D01*
X3313734Y5107076D01*
X3330854Y5101082D01*
X3348482Y5096967D01*
X3360369Y5095392D01*
X3364433Y5093970D01*
X3367532Y5090922D01*
X3369106Y5086858D01*
X3368801Y5082540D01*
X3366770Y5078730D01*
X3363264Y5076088D01*
X3359048Y5075174D01*
G37*

%LPC*%
G36*
X1567027Y5230672D02*
G01*
X2050694Y5230672D01*
X2058720Y5231485D01*
X2065985Y5233670D01*
X2072639Y5237226D01*
X2078837Y5242356D01*
X2106015Y5269534D01*
X2111146Y5275732D01*
X2114702Y5282387D01*
X2116886Y5289651D01*
X2117699Y5297678D01*
X2117699Y5365750D01*
X2118461Y5369661D01*
X2120646Y5372963D01*
X2122271Y5374538D01*
X2127910Y5382615D01*
X2132025Y5391505D01*
X2134565Y5401005D01*
X2135276Y5409031D01*
X2136190Y5412435D01*
X2138222Y5415330D01*
X2144369Y5421477D01*
X2149500Y5427726D01*
X2153056Y5434380D01*
X2155240Y5441594D01*
X2156053Y5449620D01*
X2156053Y5575503D01*
X2156815Y5579414D01*
X2159000Y5582716D01*
X2162302Y5584901D01*
X2166213Y5585663D01*
X2170074Y5584901D01*
X2173376Y5582716D01*
X2488336Y5267756D01*
X2494534Y5262626D01*
X2501239Y5259070D01*
X2508453Y5256885D01*
X2516479Y5256072D01*
X2877820Y5256072D01*
X2885846Y5256885D01*
X2893110Y5259070D01*
X2899765Y5262626D01*
X2905963Y5267756D01*
X3174542Y5536285D01*
X3179622Y5542534D01*
X3183178Y5549188D01*
X3185363Y5556402D01*
X3186176Y5564428D01*
X3186176Y5859170D01*
X3185363Y5867196D01*
X3183178Y5874410D01*
X3179622Y5881116D01*
X3174542Y5887313D01*
X3129991Y5931865D01*
X3127806Y5935065D01*
X3126994Y5938875D01*
X3127654Y5942685D01*
X3129737Y5945987D01*
X3132886Y5948273D01*
X3139948Y5951575D01*
X3148025Y5957214D01*
X3154984Y5964174D01*
X3158337Y5968085D01*
X3161233Y5969558D01*
X3164382Y5970066D01*
X3363315Y5970066D01*
X3369665Y5970828D01*
X3375101Y5972708D01*
X3380028Y5975807D01*
X3384092Y5979871D01*
X3387191Y5984798D01*
X3389071Y5990234D01*
X3389833Y5996584D01*
X3389833Y6195415D01*
X3389071Y6201765D01*
X3387191Y6207201D01*
X3384092Y6212128D01*
X3380028Y6216192D01*
X3375101Y6219291D01*
X3369665Y6221171D01*
X3363315Y6221882D01*
X3265881Y6221882D01*
X3261969Y6222695D01*
X3258667Y6224879D01*
X3256483Y6228181D01*
X3255721Y6232042D01*
X3256483Y6235954D01*
X3258667Y6239256D01*
X3465118Y6445707D01*
X3470249Y6451904D01*
X3473805Y6458559D01*
X3475990Y6465824D01*
X3476802Y6473850D01*
X3476802Y6859219D01*
X3475990Y6867245D01*
X3473805Y6874459D01*
X3470249Y6881114D01*
X3465118Y6887362D01*
X2901442Y7451039D01*
X2895193Y7456170D01*
X2888538Y7459725D01*
X2881325Y7461910D01*
X2873298Y7462672D01*
X1862988Y7462672D01*
X1854962Y7461910D01*
X1847748Y7459725D01*
X1841042Y7456170D01*
X1834845Y7451039D01*
X1790954Y7407148D01*
X1785823Y7400899D01*
X1782267Y7394244D01*
X1780082Y7387031D01*
X1779270Y7379004D01*
X1779270Y7183628D01*
X1779930Y7176973D01*
X1779473Y7172756D01*
X1777339Y7169150D01*
X1773936Y7166660D01*
X1769821Y7165797D01*
X1688033Y7165797D01*
X1681734Y7165086D01*
X1676247Y7163155D01*
X1671370Y7160107D01*
X1667256Y7155992D01*
X1664207Y7151116D01*
X1662277Y7145629D01*
X1661566Y7139330D01*
X1661566Y7070445D01*
X1662277Y7064146D01*
X1664207Y7058659D01*
X1667256Y7053783D01*
X1671370Y7049668D01*
X1676247Y7046620D01*
X1681734Y7044690D01*
X1688033Y7043978D01*
X1811883Y7043978D01*
X1818233Y7044690D01*
X1823669Y7046620D01*
X1828596Y7049668D01*
X1832660Y7053783D01*
X1835759Y7058659D01*
X1838147Y7063282D01*
X1841144Y7065670D01*
X1844802Y7066737D01*
X1848053Y7067042D01*
X1855266Y7069277D01*
X1861921Y7072833D01*
X1867763Y7077608D01*
X1872589Y7083450D01*
X1876145Y7090105D01*
X1878330Y7097369D01*
X1879142Y7105396D01*
X1879142Y7153706D01*
X1879904Y7157618D01*
X1882089Y7160920D01*
X1885391Y7163104D01*
X1889302Y7163866D01*
X1919732Y7163866D01*
X1923643Y7163104D01*
X1926894Y7160920D01*
X1929130Y7157618D01*
X1929892Y7153706D01*
X1929892Y6963664D01*
X1929130Y6959752D01*
X1926894Y6956501D01*
X1923643Y6954266D01*
X1919732Y6953503D01*
X1845614Y6953503D01*
X1841550Y6954367D01*
X1838198Y6956755D01*
X1835759Y6961124D01*
X1832660Y6966000D01*
X1828596Y6970115D01*
X1823669Y6973163D01*
X1818233Y6975094D01*
X1811883Y6975805D01*
X1688033Y6975805D01*
X1681734Y6975094D01*
X1676247Y6973163D01*
X1671370Y6970115D01*
X1667256Y6966000D01*
X1664207Y6961124D01*
X1661820Y6956450D01*
X1658823Y6954113D01*
X1655114Y6953046D01*
X1651914Y6952691D01*
X1648714Y6951725D01*
X1644294Y6951421D01*
X1640128Y6952996D01*
X1637080Y6956196D01*
X1635658Y6960412D01*
X1636166Y6964832D01*
X1637690Y6969150D01*
X1638401Y6975449D01*
X1638401Y6986066D01*
X1587601Y6986066D01*
X1587601Y6948982D01*
X1611934Y6948982D01*
X1613509Y6949186D01*
X1617675Y6948779D01*
X1621282Y6946747D01*
X1623822Y6943496D01*
X1624838Y6939432D01*
X1624126Y6935368D01*
X1621840Y6931863D01*
X1538478Y6848500D01*
X1533347Y6842252D01*
X1529791Y6835597D01*
X1527606Y6828383D01*
X1526794Y6820357D01*
X1526794Y5890768D01*
X1526032Y5886856D01*
X1523796Y5883605D01*
X1520545Y5881370D01*
X1516634Y5880608D01*
X1444193Y5880608D01*
X1440281Y5881370D01*
X1436979Y5883605D01*
X1434795Y5886856D01*
X1434033Y5890768D01*
X1434033Y5941415D01*
X1433271Y5947765D01*
X1431391Y5953201D01*
X1428292Y5958128D01*
X1424228Y5962192D01*
X1419301Y5965291D01*
X1413865Y5967171D01*
X1407515Y5967882D01*
X1208684Y5967882D01*
X1202334Y5967171D01*
X1196898Y5965291D01*
X1191971Y5962192D01*
X1187907Y5958128D01*
X1185164Y5953810D01*
X1182166Y5950712D01*
X1178102Y5949137D01*
X1173784Y5949442D01*
X1169974Y5951524D01*
X1167333Y5954979D01*
X1166418Y5959195D01*
X1166418Y6529476D01*
X1167180Y6533388D01*
X1169416Y6536690D01*
X1335074Y6702348D01*
X1340154Y6708546D01*
X1343710Y6715201D01*
X1347012Y6726478D01*
X1349248Y6729475D01*
X1352397Y6731406D01*
X1356055Y6732066D01*
X1407515Y6732066D01*
X1413865Y6732828D01*
X1419301Y6734708D01*
X1424228Y6737807D01*
X1428292Y6741871D01*
X1431391Y6746798D01*
X1433271Y6752234D01*
X1434033Y6758584D01*
X1434033Y6957415D01*
X1433271Y6963765D01*
X1431391Y6969201D01*
X1428292Y6974128D01*
X1424228Y6978192D01*
X1419301Y6981291D01*
X1413865Y6983171D01*
X1407515Y6983882D01*
X1208684Y6983882D01*
X1202334Y6983171D01*
X1196898Y6981291D01*
X1191971Y6978192D01*
X1187907Y6974128D01*
X1184808Y6969201D01*
X1182928Y6963765D01*
X1182217Y6957415D01*
X1182217Y6758584D01*
X1182928Y6752234D01*
X1184808Y6746798D01*
X1187907Y6741871D01*
X1191971Y6737807D01*
X1196898Y6734708D01*
X1202334Y6732828D01*
X1208684Y6732066D01*
X1231087Y6732066D01*
X1234948Y6731304D01*
X1238250Y6729120D01*
X1240485Y6725818D01*
X1241247Y6721906D01*
X1240485Y6718046D01*
X1238250Y6714744D01*
X1100886Y6577330D01*
X1095756Y6571132D01*
X1092200Y6564426D01*
X1090015Y6557213D01*
X1089202Y6549186D01*
X1089202Y5708548D01*
X1090015Y5700522D01*
X1092200Y5693257D01*
X1095756Y5686602D01*
X1100886Y5680405D01*
X1538884Y5242356D01*
X1545132Y5237226D01*
X1551787Y5233670D01*
X1559001Y5231485D01*
G37*
G36*
X1488084Y6948982D02*
G01*
X1512366Y6948982D01*
X1512366Y6986066D01*
X1461566Y6986066D01*
X1461566Y6975449D01*
X1462278Y6969150D01*
X1464208Y6963664D01*
X1467307Y6958787D01*
X1471371Y6954672D01*
X1476298Y6951624D01*
X1481734Y6949694D01*
G37*
G36*
X1587601Y7033717D02*
G01*
X1638401Y7033717D01*
X1638401Y7044334D01*
X1637690Y7050633D01*
X1635760Y7056120D01*
X1632712Y7060996D01*
X1628597Y7065111D01*
X1623720Y7068159D01*
X1618234Y7070090D01*
X1611934Y7070801D01*
X1587601Y7070801D01*
G37*
G36*
X1461566Y7033717D02*
G01*
X1512366Y7033717D01*
X1512366Y7070801D01*
X1488084Y7070801D01*
X1481734Y7070090D01*
X1476298Y7068159D01*
X1471371Y7065111D01*
X1467307Y7060996D01*
X1464208Y7056120D01*
X1462278Y7050633D01*
X1461566Y7044334D01*
G37*

%LPD*%
G36*
X2814015Y6673037D02*
G01*
X2810052Y6674103D01*
X2806852Y6676644D01*
X2804871Y6680301D01*
X2802382Y6688683D01*
X2798826Y6695338D01*
X2793746Y6701536D01*
X2626614Y6868668D01*
X2624429Y6871919D01*
X2623667Y6875830D01*
X2624429Y6879691D01*
X2626614Y6882993D01*
X2668574Y6924954D01*
X2673654Y6931152D01*
X2677210Y6937806D01*
X2679395Y6945071D01*
X2680208Y6953097D01*
X2680208Y7153706D01*
X2680970Y7157618D01*
X2683205Y7160920D01*
X2686507Y7163104D01*
X2690368Y7163866D01*
X2741015Y7163866D01*
X2747365Y7164628D01*
X2752801Y7166508D01*
X2757728Y7169607D01*
X2761792Y7173671D01*
X2764891Y7178598D01*
X2766771Y7184034D01*
X2767533Y7190384D01*
X2767533Y7375296D01*
X2768295Y7379208D01*
X2770479Y7382509D01*
X2773781Y7384694D01*
X2777693Y7385456D01*
X2853588Y7385456D01*
X2857449Y7384694D01*
X2860751Y7382509D01*
X3060141Y7183120D01*
X3062325Y7179868D01*
X3063087Y7175957D01*
X3062325Y7172096D01*
X3060141Y7168794D01*
X3056839Y7166559D01*
X3052927Y7165797D01*
X2988005Y7165797D01*
X2981706Y7165086D01*
X2976219Y7163155D01*
X2971342Y7160107D01*
X2967228Y7155992D01*
X2964180Y7151116D01*
X2962249Y7145629D01*
X2961538Y7139330D01*
X2961538Y7070445D01*
X2962249Y7064146D01*
X2965399Y7055053D01*
X2965196Y7051243D01*
X2963672Y7047788D01*
X2962503Y7046112D01*
X2957931Y7036409D01*
X2955239Y7032904D01*
X2951784Y7031126D01*
X2952699Y7030466D01*
X2954832Y7026859D01*
X2955340Y7022693D01*
X2954934Y7017918D01*
X2955798Y7008164D01*
X2958338Y6998665D01*
X2962503Y6989775D01*
X2970530Y6978192D01*
X2971342Y6974281D01*
X2970530Y6970420D01*
X2967228Y6966000D01*
X2964180Y6961124D01*
X2962249Y6955637D01*
X2961538Y6949338D01*
X2961538Y6880453D01*
X2961182Y6876084D01*
X2959100Y6872427D01*
X2955747Y6869887D01*
X2953258Y6868718D01*
X2945180Y6863080D01*
X2938272Y6856120D01*
X2932633Y6848094D01*
X2930398Y6843318D01*
X2927858Y6839966D01*
X2924149Y6837883D01*
X2919933Y6837527D01*
X2915920Y6838950D01*
X2912821Y6841845D01*
X2906572Y6850888D01*
X2899613Y6857796D01*
X2891586Y6863435D01*
X2882696Y6867601D01*
X2873197Y6870141D01*
X2863392Y6871004D01*
X2853588Y6870141D01*
X2844139Y6867601D01*
X2835198Y6863435D01*
X2827172Y6857796D01*
X2820212Y6850888D01*
X2814574Y6842810D01*
X2810408Y6833920D01*
X2807868Y6824421D01*
X2807004Y6814616D01*
X2807868Y6804863D01*
X2810408Y6795363D01*
X2814574Y6786473D01*
X2820212Y6778396D01*
X2821787Y6776821D01*
X2824022Y6773519D01*
X2824784Y6769608D01*
X2824784Y6683197D01*
X2823972Y6679133D01*
X2821584Y6675780D01*
X2818079Y6673646D01*
G37*

%LPC*%
G36*
X2887573Y6948982D02*
G01*
X2911906Y6948982D01*
X2918206Y6949694D01*
X2923692Y6951624D01*
X2928569Y6954672D01*
X2932684Y6958787D01*
X2935732Y6963664D01*
X2937662Y6969150D01*
X2938373Y6975449D01*
X2938373Y6986066D01*
X2887573Y6986066D01*
G37*
G36*
X2788056Y6948982D02*
G01*
X2812338Y6948982D01*
X2812338Y6986066D01*
X2761538Y6986066D01*
X2761538Y6975449D01*
X2762250Y6969150D01*
X2764180Y6963664D01*
X2767279Y6958787D01*
X2771343Y6954672D01*
X2776270Y6951624D01*
X2781706Y6949694D01*
G37*
G36*
X2761538Y7033717D02*
G01*
X2812338Y7033717D01*
X2812338Y7070801D01*
X2788056Y7070801D01*
X2781706Y7070090D01*
X2776270Y7068159D01*
X2771343Y7065111D01*
X2767279Y7060996D01*
X2764180Y7056120D01*
X2762250Y7050633D01*
X2761538Y7044334D01*
G37*
G36*
X2887573Y7033717D02*
G01*
X2941675Y7033717D01*
X2939796Y7035901D01*
X2938576Y7040168D01*
X2938424Y7044080D01*
X2937662Y7050633D01*
X2935732Y7056120D01*
X2932684Y7060996D01*
X2928569Y7065111D01*
X2923692Y7068159D01*
X2918206Y7070090D01*
X2911906Y7070801D01*
X2887573Y7070801D01*
G37*

%LPD*%
G36*
X2791155Y5548782D02*
G01*
X2787497Y5549493D01*
X2784348Y5551424D01*
X2782112Y5554421D01*
X2778810Y5565648D01*
X2775254Y5572353D01*
X2770174Y5578551D01*
X2733090Y5615635D01*
X2730855Y5618937D01*
X2730093Y5622848D01*
X2730093Y5769610D01*
X2729331Y5777636D01*
X2727096Y5784850D01*
X2723540Y5791504D01*
X2718460Y5797753D01*
X2548686Y5967526D01*
X2546350Y5971082D01*
X2545689Y5975299D01*
X2546858Y5979414D01*
X2549601Y5982716D01*
X2553411Y5984544D01*
X2557678Y5984697D01*
X2562910Y5983732D01*
X2578100Y5982817D01*
X2593289Y5983732D01*
X2608224Y5986475D01*
X2622753Y5990996D01*
X2636621Y5997244D01*
X2649626Y6005118D01*
X2661564Y6014466D01*
X2672334Y6025235D01*
X2681681Y6037173D01*
X2689555Y6050178D01*
X2695803Y6064046D01*
X2700324Y6078575D01*
X2703068Y6093510D01*
X2703982Y6108700D01*
X2703728Y6112713D01*
X2704338Y6116726D01*
X2706420Y6120180D01*
X2709722Y6122568D01*
X2713685Y6123482D01*
X2717698Y6122720D01*
X2721051Y6120485D01*
X2739948Y6101638D01*
X2741980Y6098743D01*
X2742895Y6095339D01*
X2743606Y6087262D01*
X2746146Y6077762D01*
X2750312Y6068872D01*
X2755950Y6060846D01*
X2762859Y6053886D01*
X2770936Y6048248D01*
X2779826Y6044082D01*
X2789326Y6041542D01*
X2799130Y6040678D01*
X2808884Y6041542D01*
X2818384Y6044082D01*
X2827274Y6048248D01*
X2835351Y6053886D01*
X2842310Y6060846D01*
X2847949Y6068872D01*
X2852064Y6077762D01*
X2854604Y6087262D01*
X2855468Y6097066D01*
X2854604Y6106871D01*
X2852064Y6116320D01*
X2847949Y6125260D01*
X2842310Y6133287D01*
X2835351Y6140246D01*
X2827274Y6145885D01*
X2818384Y6150051D01*
X2808884Y6152591D01*
X2800858Y6153302D01*
X2797454Y6154216D01*
X2794558Y6156198D01*
X2532075Y6418681D01*
X2529890Y6421983D01*
X2529128Y6425895D01*
X2529128Y6431280D01*
X2529840Y6435039D01*
X2531872Y6438239D01*
X2534920Y6440474D01*
X2538577Y6441440D01*
X2542387Y6440982D01*
X2545689Y6439154D01*
X2548991Y6436461D01*
X2555646Y6432905D01*
X2562860Y6430670D01*
X2570886Y6429908D01*
X2679141Y6429908D01*
X2683002Y6429146D01*
X2686304Y6426911D01*
X2687929Y6425336D01*
X2695956Y6419697D01*
X2704896Y6415532D01*
X2714345Y6412992D01*
X2724150Y6412128D01*
X2733954Y6412992D01*
X2743454Y6415532D01*
X2752344Y6419697D01*
X2760370Y6425336D01*
X2767330Y6432296D01*
X2772968Y6440322D01*
X2777134Y6449212D01*
X2779674Y6458712D01*
X2780538Y6468516D01*
X2780030Y6474155D01*
X2780487Y6478219D01*
X2782570Y6481775D01*
X2785872Y6484213D01*
X2794965Y6488480D01*
X2802991Y6494119D01*
X2807462Y6498539D01*
X2810764Y6500774D01*
X2814624Y6501536D01*
X2818536Y6500774D01*
X2821787Y6498539D01*
X2824022Y6495237D01*
X2824784Y6491376D01*
X2824784Y6427470D01*
X2824022Y6423558D01*
X2821787Y6420256D01*
X2802026Y6400495D01*
X2799181Y6398463D01*
X2795727Y6397548D01*
X2791612Y6397193D01*
X2782112Y6394653D01*
X2773222Y6390487D01*
X2765145Y6384848D01*
X2758236Y6377940D01*
X2752598Y6369862D01*
X2748432Y6360972D01*
X2745892Y6351473D01*
X2745028Y6341668D01*
X2745892Y6331915D01*
X2748432Y6322415D01*
X2752598Y6313525D01*
X2758236Y6305448D01*
X2765145Y6298488D01*
X2773222Y6292850D01*
X2782112Y6288735D01*
X2791612Y6286195D01*
X2801416Y6285331D01*
X2811170Y6286195D01*
X2820670Y6288735D01*
X2829560Y6292850D01*
X2837637Y6298488D01*
X2844596Y6305448D01*
X2850235Y6313525D01*
X2854350Y6322415D01*
X2856890Y6331915D01*
X2858312Y6346240D01*
X2860700Y6349949D01*
X2890367Y6379616D01*
X2895447Y6385814D01*
X2899003Y6392468D01*
X2901188Y6399733D01*
X2902000Y6407759D01*
X2902000Y6769608D01*
X2902762Y6773519D01*
X2904998Y6776821D01*
X2906572Y6778396D01*
X2912211Y6786473D01*
X2914446Y6791198D01*
X2916986Y6794601D01*
X2920695Y6796633D01*
X2924911Y6796989D01*
X2928924Y6795617D01*
X2931972Y6792722D01*
X2938272Y6783628D01*
X2939846Y6782053D01*
X2942031Y6778752D01*
X2942844Y6774891D01*
X2942844Y5873953D01*
X2943606Y5865926D01*
X2945790Y5858662D01*
X2949346Y5852007D01*
X2954477Y5845810D01*
X2958541Y5841695D01*
X2960776Y5838393D01*
X2961538Y5834532D01*
X2961538Y5770473D01*
X2962249Y5764174D01*
X2964180Y5758688D01*
X2967228Y5753811D01*
X2971342Y5749696D01*
X2976219Y5746648D01*
X2981706Y5744718D01*
X2988005Y5744006D01*
X3098800Y5744006D01*
X3102711Y5743244D01*
X3105962Y5741060D01*
X3108198Y5737758D01*
X3108960Y5733846D01*
X3108960Y5685993D01*
X3108198Y5682081D01*
X3105962Y5678779D01*
X3102711Y5676595D01*
X3098800Y5675833D01*
X2988005Y5675833D01*
X2981706Y5675122D01*
X2976219Y5673191D01*
X2971342Y5670143D01*
X2967228Y5666028D01*
X2964180Y5661152D01*
X2961792Y5656478D01*
X2958795Y5654141D01*
X2955086Y5653074D01*
X2951886Y5652719D01*
X2948686Y5651754D01*
X2944266Y5651449D01*
X2940100Y5653024D01*
X2937052Y5656224D01*
X2935630Y5660440D01*
X2936138Y5664860D01*
X2937662Y5669178D01*
X2938373Y5675477D01*
X2938373Y5686094D01*
X2887573Y5686094D01*
X2887573Y5649010D01*
X2911906Y5649010D01*
X2913481Y5649214D01*
X2917647Y5648807D01*
X2921254Y5646775D01*
X2923794Y5643524D01*
X2924810Y5639460D01*
X2924098Y5635396D01*
X2921812Y5631891D01*
X2844292Y5554370D01*
X2842768Y5552541D01*
X2839262Y5549798D01*
X2834894Y5548782D01*
G37*

%LPC*%
G36*
X2788056Y5649010D02*
G01*
X2812338Y5649010D01*
X2812338Y5686094D01*
X2761538Y5686094D01*
X2761538Y5675477D01*
X2762250Y5669178D01*
X2764180Y5663692D01*
X2767279Y5658815D01*
X2771343Y5654700D01*
X2776270Y5651652D01*
X2781706Y5649722D01*
G37*
G36*
X2887573Y5733745D02*
G01*
X2938373Y5733745D01*
X2938373Y5744362D01*
X2937662Y5750661D01*
X2935732Y5756148D01*
X2932684Y5761024D01*
X2928569Y5765139D01*
X2923692Y5768187D01*
X2918206Y5770118D01*
X2911906Y5770829D01*
X2887573Y5770829D01*
G37*
G36*
X2761538Y5733745D02*
G01*
X2812338Y5733745D01*
X2812338Y5770829D01*
X2788056Y5770829D01*
X2781706Y5770118D01*
X2776270Y5768187D01*
X2771343Y5765139D01*
X2767279Y5761024D01*
X2764180Y5756148D01*
X2762250Y5750661D01*
X2761538Y5744362D01*
G37*

%LPD*%
G36*
X1586738Y5307888D02*
G01*
X1582877Y5308701D01*
X1579575Y5310886D01*
X1189685Y5700776D01*
X1187500Y5703976D01*
X1186688Y5707786D01*
X1187399Y5711647D01*
X1189431Y5714898D01*
X1192580Y5717184D01*
X1196390Y5718098D01*
X1200200Y5717540D01*
X1202334Y5716828D01*
X1208684Y5716066D01*
X1407515Y5716066D01*
X1413865Y5716828D01*
X1419301Y5718708D01*
X1424228Y5721807D01*
X1428292Y5725871D01*
X1431391Y5730798D01*
X1433271Y5736234D01*
X1434033Y5742584D01*
X1434033Y5793232D01*
X1434795Y5797092D01*
X1436979Y5800394D01*
X1440281Y5802630D01*
X1444193Y5803392D01*
X1545183Y5803392D01*
X1549095Y5802630D01*
X1552397Y5800394D01*
X1584604Y5768187D01*
X1586839Y5764885D01*
X1587601Y5761024D01*
X1587601Y5733745D01*
X1610715Y5733745D01*
X1614576Y5732983D01*
X1617878Y5730798D01*
X1620062Y5727496D01*
X1620875Y5723585D01*
X1620875Y5696254D01*
X1620062Y5692343D01*
X1617878Y5689041D01*
X1614576Y5686856D01*
X1610715Y5686094D01*
X1587601Y5686094D01*
X1587601Y5649010D01*
X1610715Y5649010D01*
X1614576Y5648248D01*
X1617878Y5646013D01*
X1620062Y5642762D01*
X1620875Y5638850D01*
X1620875Y5615432D01*
X1621637Y5607405D01*
X1623822Y5600141D01*
X1627378Y5593486D01*
X1632204Y5587644D01*
X1638046Y5582869D01*
X1644700Y5579313D01*
X1651914Y5577078D01*
X1655114Y5576773D01*
X1658823Y5575706D01*
X1661820Y5573318D01*
X1664207Y5568696D01*
X1667256Y5563819D01*
X1671370Y5559704D01*
X1676247Y5556656D01*
X1681734Y5554726D01*
X1688033Y5554014D01*
X1811883Y5554014D01*
X1818233Y5554726D01*
X1823669Y5556656D01*
X1828596Y5559704D01*
X1832660Y5563819D01*
X1835759Y5568696D01*
X1837689Y5574182D01*
X1838401Y5580481D01*
X1838401Y5649366D01*
X1837689Y5655665D01*
X1835759Y5661152D01*
X1832660Y5666028D01*
X1828596Y5670143D01*
X1823669Y5673191D01*
X1818233Y5675122D01*
X1811883Y5675833D01*
X1708251Y5675833D01*
X1704339Y5676595D01*
X1701038Y5678779D01*
X1698853Y5682081D01*
X1698091Y5685993D01*
X1698091Y5733846D01*
X1698853Y5737758D01*
X1701038Y5741060D01*
X1704339Y5743244D01*
X1708251Y5744006D01*
X1811883Y5744006D01*
X1818233Y5744718D01*
X1823669Y5746648D01*
X1828596Y5749696D01*
X1832660Y5753811D01*
X1835759Y5758688D01*
X1838147Y5763310D01*
X1841144Y5765698D01*
X1845970Y5766917D01*
X1850389Y5766358D01*
X1854149Y5763971D01*
X1855571Y5762548D01*
X1863648Y5756910D01*
X1872538Y5752744D01*
X1882038Y5750204D01*
X1891842Y5749340D01*
X1901596Y5750204D01*
X1911096Y5752744D01*
X1919986Y5756910D01*
X1928063Y5762548D01*
X1935022Y5769508D01*
X1940661Y5777534D01*
X1944776Y5786424D01*
X1947316Y5795924D01*
X1948180Y5805728D01*
X1947316Y5815533D01*
X1944776Y5824982D01*
X1940661Y5833922D01*
X1935022Y5841949D01*
X1928063Y5848908D01*
X1919986Y5854547D01*
X1911096Y5858713D01*
X1901596Y5861253D01*
X1891842Y5862116D01*
X1882038Y5861253D01*
X1872538Y5858713D01*
X1863648Y5854547D01*
X1855571Y5848908D01*
X1853996Y5847334D01*
X1850694Y5845098D01*
X1845360Y5844336D01*
X1841296Y5845200D01*
X1837893Y5847588D01*
X1832660Y5856020D01*
X1828596Y5860135D01*
X1823669Y5863183D01*
X1818233Y5865114D01*
X1811883Y5865825D01*
X1688033Y5865825D01*
X1681734Y5865114D01*
X1676247Y5863183D01*
X1671370Y5860135D01*
X1667256Y5856020D01*
X1664207Y5851144D01*
X1662277Y5845657D01*
X1661566Y5839358D01*
X1661566Y5824982D01*
X1660804Y5821070D01*
X1658569Y5817768D01*
X1655318Y5815584D01*
X1651406Y5814822D01*
X1647545Y5815584D01*
X1644243Y5817768D01*
X1607007Y5855004D01*
X1604772Y5858306D01*
X1604010Y5862218D01*
X1604010Y6800646D01*
X1604772Y6804507D01*
X1607007Y6807809D01*
X1657959Y6858762D01*
X1660702Y6860743D01*
X1664004Y6861708D01*
X1667408Y6861505D01*
X1670557Y6860184D01*
X1676247Y6856628D01*
X1681734Y6854698D01*
X1688033Y6853986D01*
X1811883Y6853986D01*
X1818233Y6854698D01*
X1823669Y6856628D01*
X1828596Y6859676D01*
X1832660Y6863791D01*
X1838198Y6873036D01*
X1841550Y6875424D01*
X1845614Y6876288D01*
X1919732Y6876288D01*
X1923643Y6875525D01*
X1926894Y6873290D01*
X1929130Y6869988D01*
X1929892Y6866128D01*
X1929892Y6806793D01*
X1929282Y6803339D01*
X1927606Y6800342D01*
X1925015Y6798056D01*
X1922373Y6796481D01*
X1910435Y6787134D01*
X1899666Y6776364D01*
X1890318Y6764426D01*
X1882444Y6751421D01*
X1876196Y6737553D01*
X1871675Y6723024D01*
X1868932Y6708089D01*
X1868017Y6692900D01*
X1868932Y6677710D01*
X1871675Y6662775D01*
X1876196Y6648246D01*
X1882444Y6634378D01*
X1890318Y6621373D01*
X1899666Y6609435D01*
X1910435Y6598666D01*
X1922373Y6589318D01*
X1935378Y6581444D01*
X1949246Y6575196D01*
X1963775Y6570675D01*
X1978710Y6567931D01*
X1993900Y6567017D01*
X2009089Y6567931D01*
X2024024Y6570675D01*
X2038553Y6575196D01*
X2052421Y6581444D01*
X2054910Y6582918D01*
X2059127Y6584340D01*
X2063546Y6583832D01*
X2067356Y6581444D01*
X2234590Y6414160D01*
X2236825Y6410858D01*
X2237587Y6406997D01*
X2237587Y6383731D01*
X2260701Y6383731D01*
X2264562Y6382969D01*
X2267864Y6380784D01*
X2270048Y6377482D01*
X2270861Y6373571D01*
X2270861Y6346240D01*
X2270048Y6342329D01*
X2267864Y6339027D01*
X2264562Y6336842D01*
X2260701Y6336080D01*
X2237587Y6336080D01*
X2237587Y6298996D01*
X2260701Y6298996D01*
X2264562Y6298234D01*
X2267864Y6295999D01*
X2270048Y6292748D01*
X2270861Y6288836D01*
X2270861Y6265418D01*
X2271623Y6257391D01*
X2273808Y6250127D01*
X2277364Y6243472D01*
X2282190Y6237630D01*
X2288032Y6232855D01*
X2294686Y6229299D01*
X2301900Y6227064D01*
X2305100Y6226759D01*
X2308504Y6225844D01*
X2311349Y6223812D01*
X2313381Y6220917D01*
X2315159Y6216954D01*
X2316124Y6212687D01*
X2316124Y6107379D01*
X2316886Y6099352D01*
X2319070Y6092088D01*
X2322626Y6085433D01*
X2327757Y6079236D01*
X2649880Y5757062D01*
X2652115Y5753760D01*
X2652877Y5749899D01*
X2652877Y5603138D01*
X2653690Y5595112D01*
X2655874Y5587847D01*
X2659430Y5581192D01*
X2664561Y5574995D01*
X2673350Y5566156D01*
X2675585Y5562854D01*
X2676347Y5558942D01*
X2675585Y5555081D01*
X2673350Y5551779D01*
X2670048Y5549595D01*
X2666187Y5548782D01*
X2643784Y5548782D01*
X2637434Y5548071D01*
X2631998Y5546191D01*
X2627071Y5543092D01*
X2623007Y5539028D01*
X2619908Y5534101D01*
X2618028Y5528665D01*
X2617266Y5522315D01*
X2617266Y5343448D01*
X2616504Y5339588D01*
X2614320Y5336286D01*
X2611018Y5334101D01*
X2607157Y5333288D01*
X2536190Y5333288D01*
X2532278Y5334101D01*
X2528976Y5336286D01*
X2340660Y5524601D01*
X2338273Y5528310D01*
X2337714Y5532678D01*
X2339035Y5536895D01*
X2342032Y5540146D01*
X2344674Y5541975D01*
X2351633Y5548934D01*
X2357272Y5557012D01*
X2361438Y5565902D01*
X2363978Y5575401D01*
X2364841Y5585155D01*
X2363978Y5594959D01*
X2361438Y5604459D01*
X2357272Y5613349D01*
X2351633Y5621426D01*
X2350058Y5623001D01*
X2347823Y5626303D01*
X2347061Y5630214D01*
X2347061Y6011519D01*
X2346248Y6019546D01*
X2344064Y6026759D01*
X2340508Y6033414D01*
X2335428Y6039662D01*
X2302611Y6072428D01*
X2300579Y6075324D01*
X2299665Y6078728D01*
X2298954Y6086805D01*
X2296414Y6096254D01*
X2292299Y6105194D01*
X2286660Y6113221D01*
X2279700Y6120180D01*
X2271623Y6125819D01*
X2262733Y6129985D01*
X2253234Y6132525D01*
X2243480Y6133388D01*
X2233676Y6132525D01*
X2224176Y6129985D01*
X2215286Y6125819D01*
X2207209Y6120180D01*
X2200300Y6113221D01*
X2194661Y6105194D01*
X2190496Y6096254D01*
X2187956Y6086805D01*
X2187092Y6077000D01*
X2187956Y6067196D01*
X2190496Y6057696D01*
X2194661Y6048806D01*
X2200300Y6040780D01*
X2207209Y6033820D01*
X2215286Y6028182D01*
X2224176Y6024016D01*
X2233676Y6021476D01*
X2241702Y6020765D01*
X2245106Y6019850D01*
X2248001Y6017818D01*
X2266848Y5998972D01*
X2269083Y5995670D01*
X2269845Y5991809D01*
X2269845Y5630214D01*
X2269083Y5626303D01*
X2266848Y5623001D01*
X2263394Y5618734D01*
X2260142Y5615787D01*
X2255977Y5614466D01*
X2251608Y5615025D01*
X2247900Y5617362D01*
X2217674Y5647588D01*
X2215489Y5650890D01*
X2214727Y5654802D01*
X2214727Y5663895D01*
X2213914Y5671921D01*
X2211730Y5679135D01*
X2208174Y5685790D01*
X2203043Y5692038D01*
X2169363Y5725668D01*
X2163165Y5730798D01*
X2156510Y5734354D01*
X2154885Y5734862D01*
X2151176Y5736945D01*
X2148586Y5740349D01*
X2147722Y5744565D01*
X2147722Y5758891D01*
X2148484Y5762802D01*
X2150668Y5766104D01*
X2152294Y5767679D01*
X2157933Y5775756D01*
X2162048Y5784646D01*
X2164588Y5794146D01*
X2165451Y5803900D01*
X2164588Y5813704D01*
X2162048Y5823204D01*
X2157933Y5832094D01*
X2152294Y5840171D01*
X2145334Y5847080D01*
X2137257Y5852718D01*
X2128367Y5856884D01*
X2118868Y5859424D01*
X2109114Y5860288D01*
X2099310Y5859424D01*
X2089810Y5856884D01*
X2080920Y5852718D01*
X2072843Y5847080D01*
X2065934Y5840171D01*
X2060295Y5832094D01*
X2056130Y5823204D01*
X2053589Y5813704D01*
X2052726Y5803900D01*
X2053589Y5794146D01*
X2056130Y5784646D01*
X2060295Y5775756D01*
X2065934Y5767679D01*
X2067509Y5766104D01*
X2069693Y5762802D01*
X2070506Y5758891D01*
X2070506Y5734608D01*
X2069490Y5730240D01*
X2066747Y5726734D01*
X2065477Y5725668D01*
X1903475Y5563666D01*
X1898345Y5557418D01*
X1894789Y5550763D01*
X1892604Y5543550D01*
X1891792Y5535523D01*
X1891792Y5533542D01*
X1891030Y5529681D01*
X1888794Y5526379D01*
X1885543Y5524195D01*
X1881632Y5523382D01*
X1830984Y5523382D01*
X1824634Y5522671D01*
X1819198Y5520791D01*
X1814271Y5517692D01*
X1810207Y5513628D01*
X1807108Y5508701D01*
X1805228Y5503265D01*
X1804517Y5496915D01*
X1804517Y5318048D01*
X1803704Y5314188D01*
X1801520Y5310886D01*
X1798218Y5308701D01*
X1794357Y5307888D01*
G37*

%LPC*%
G36*
X1488084Y5649010D02*
G01*
X1512366Y5649010D01*
X1512366Y5686094D01*
X1461566Y5686094D01*
X1461566Y5675477D01*
X1462278Y5669178D01*
X1464208Y5663692D01*
X1467307Y5658815D01*
X1471371Y5654700D01*
X1476298Y5651652D01*
X1481734Y5649722D01*
G37*
G36*
X1461566Y5733745D02*
G01*
X1512366Y5733745D01*
X1512366Y5770829D01*
X1488084Y5770829D01*
X1481734Y5770118D01*
X1476298Y5768187D01*
X1471371Y5765139D01*
X1467307Y5761024D01*
X1464208Y5756148D01*
X1462278Y5750661D01*
X1461566Y5744362D01*
G37*
G36*
X1993900Y5957417D02*
G01*
X2009089Y5958332D01*
X2024024Y5961075D01*
X2038553Y5965596D01*
X2052421Y5971844D01*
X2065426Y5979718D01*
X2077364Y5989066D01*
X2088134Y5999835D01*
X2097481Y6011773D01*
X2105355Y6024778D01*
X2111603Y6038646D01*
X2116124Y6053175D01*
X2118868Y6068110D01*
X2119782Y6083300D01*
X2118868Y6098489D01*
X2116124Y6113424D01*
X2111603Y6127953D01*
X2105355Y6141821D01*
X2097481Y6154826D01*
X2088134Y6166764D01*
X2077364Y6177534D01*
X2065426Y6186881D01*
X2052421Y6194755D01*
X2038553Y6201003D01*
X2024024Y6205524D01*
X2009089Y6208268D01*
X1993900Y6209182D01*
X1978710Y6208268D01*
X1963775Y6205524D01*
X1949246Y6201003D01*
X1935378Y6194755D01*
X1922373Y6186881D01*
X1910435Y6177534D01*
X1899666Y6166764D01*
X1890318Y6154826D01*
X1882444Y6141821D01*
X1876196Y6127953D01*
X1871675Y6113424D01*
X1868932Y6098489D01*
X1868017Y6083300D01*
X1868932Y6068110D01*
X1871675Y6053175D01*
X1876196Y6038646D01*
X1882444Y6024778D01*
X1890318Y6011773D01*
X1899666Y5999835D01*
X1910435Y5989066D01*
X1922373Y5979718D01*
X1935378Y5971844D01*
X1949246Y5965596D01*
X1963775Y5961075D01*
X1978710Y5958332D01*
G37*
G36*
X2138070Y6298996D02*
G01*
X2162352Y6298996D01*
X2162352Y6336080D01*
X2111552Y6336080D01*
X2111552Y6325463D01*
X2112264Y6319164D01*
X2114194Y6313678D01*
X2117293Y6308801D01*
X2121357Y6304686D01*
X2126284Y6301638D01*
X2131720Y6299708D01*
G37*
G36*
X2111552Y6383731D02*
G01*
X2162352Y6383731D01*
X2162352Y6420815D01*
X2138070Y6420815D01*
X2131720Y6420104D01*
X2126284Y6418173D01*
X2121357Y6415125D01*
X2117293Y6411010D01*
X2114194Y6406134D01*
X2112264Y6400647D01*
X2111552Y6394348D01*
G37*

%LPD*%
D10*
X3095221Y6914893D02*
G01*
X3011299Y6998815D01*
X3011299Y7017941D01*
X3095221Y6914893D02*
G01*
X3140483Y6914893D01*
X3049958Y6914893D02*
G01*
X3095221Y6914893D01*
X2743202Y5550913D02*
G01*
X2691488Y5602627D01*
X2691488Y5770090D01*
X2354709Y6106868D01*
X2354709Y6264907D01*
X3135886Y6095997D02*
G01*
X3129155Y6102728D01*
X3129155Y6840547D01*
X3140483Y6851876D01*
X3140483Y6914893D01*
X3135886Y6095997D02*
G01*
X3135886Y6024496D01*
X3111781Y6000391D01*
X2743202Y5422897D02*
G01*
X2743202Y5550913D01*
X2354709Y6264907D02*
G01*
X2309446Y6264907D01*
X2399972Y6264907D02*
G01*
X2354709Y6264907D01*
X2309446Y6264907D02*
G01*
X2309446Y6393914D01*
X2010463Y6692897D01*
X1993902Y6692897D01*
X1749986Y6914893D02*
G01*
X1968502Y6914893D01*
X1704723Y6914893D02*
G01*
X1749986Y6914893D01*
X1968502Y6914893D02*
G01*
X1968502Y6718297D01*
X1993902Y6692897D01*
X1968502Y7289797D02*
G01*
X1968502Y6914893D01*
X1704723Y6914893D02*
G01*
X1659460Y6914893D01*
X3263902Y6095997D02*
G01*
X3135886Y6095997D01*
X1565404Y5841997D02*
G01*
X1659460Y5747941D01*
X1659460Y5614921D01*
X1308102Y5841997D02*
G01*
X1565404Y5841997D01*
X1565404Y5841997D02*
G01*
X1565404Y6820837D01*
X1659460Y6914893D01*
X3049958Y5614921D02*
G01*
X2959432Y5614921D01*
X2743202Y5422897D02*
G01*
X2871218Y5422897D01*
X2871218Y5422897D02*
G01*
X2871218Y5526707D01*
X2959432Y5614921D01*
X1749986Y5614921D02*
G01*
X1659460Y5614921D01*
X1504723Y7009889D02*
G01*
X1504723Y7148903D01*
X1907542Y7551722D01*
X2260246Y7551722D01*
X1504723Y7009889D02*
G01*
X1459461Y7009889D01*
X1549986Y7009889D02*
G01*
X1504723Y7009889D01*
X1549986Y5709917D02*
G01*
X1183769Y5709917D01*
X1179908Y5713778D01*
X1179908Y6476794D01*
X1459461Y6756346D01*
X1459461Y7009889D01*
X2109447Y6359903D02*
G01*
X2109447Y6296886D01*
X2132103Y6274229D01*
X2132103Y5909891D01*
X2005992Y5783780D01*
X2005992Y5721449D01*
X1836295Y5551751D01*
X1661518Y5551751D01*
X1549986Y5663283D01*
X1549986Y5709917D01*
X2109447Y6359903D02*
G01*
X2020470Y6359903D01*
X1944093Y6436281D01*
X2940484Y7009889D02*
G01*
X2940484Y6861909D01*
X2922755Y6844179D01*
X2922755Y6795615D01*
X2940484Y6777885D01*
X2940484Y5709917D01*
X2849958Y5709917D02*
G01*
X2759433Y5709917D01*
X2759433Y5709917D02*
G01*
X2759433Y5791553D01*
X2804695Y5836815D01*
X2850339Y5709917D02*
G01*
X2849958Y5709917D01*
X2850339Y5709917D02*
G01*
X2940484Y5709917D01*
X2895221Y7009889D02*
G01*
X2849958Y7009889D01*
X2895221Y7009889D02*
G01*
X2940484Y7009889D01*
X2199972Y6359903D02*
G01*
X2109447Y6359903D01*
X2109091Y5698741D02*
G01*
X2093140Y5698741D01*
X1930402Y5536003D01*
X1930402Y5525513D01*
X3064766Y6251597D02*
G01*
X3053082Y6239913D01*
X3053082Y5954163D01*
X3147570Y5859675D01*
X3147570Y5563943D01*
X2878330Y5294703D01*
X2515974Y5294703D01*
X2176096Y5634581D01*
X2176096Y5664375D01*
X2141730Y5698741D01*
X2109091Y5698741D01*
X2109091Y5698741D02*
G01*
X2109091Y5803922D01*
X1930402Y5397497D02*
G01*
X1930402Y5525513D01*
X2724152Y6468513D02*
G01*
X2570406Y6468513D01*
X2465224Y6573695D01*
X2226287Y6573695D01*
X2142390Y6657591D01*
X2142390Y6719440D01*
X2142365Y6719440D01*
X1308102Y6729981D02*
G01*
X1127813Y6549692D01*
X1127813Y5708037D01*
X1566547Y5269303D01*
X2051204Y5269303D01*
X2079068Y5297167D01*
X2079068Y5410781D01*
X2079068Y5410781D02*
G01*
X2117422Y5449135D01*
X2117422Y5640067D01*
X1308102Y6857997D02*
G01*
X1308102Y6729981D01*
X2564843Y6875828D02*
G01*
X2641602Y6952587D01*
X2641602Y7289797D01*
X2255624Y6643418D02*
G01*
X2488034Y6875828D01*
X2564843Y6875828D01*
X2564843Y6875828D02*
G01*
X2766773Y6673898D01*
X2766773Y6537297D01*
X2243457Y6076998D02*
G01*
X2308456Y6011999D01*
X2308456Y5585178D01*
X3263902Y6488681D02*
G01*
X3263902Y6470469D01*
X3263902Y6616697D02*
G01*
X3263902Y6488681D01*
X2399972Y6454899D02*
G01*
X2490497Y6454899D01*
X2490497Y6454899D02*
G01*
X2490497Y6405674D01*
X2799107Y6097064D01*
X3188286Y6328559D02*
G01*
X3215769Y6328559D01*
X3392096Y6504886D01*
X3392096Y6836509D01*
X3123719Y7104885D01*
X3049958Y7104885D02*
G01*
X3123719Y7104885D01*
X1749986Y5804913D02*
G01*
X1840511Y5804913D01*
X1891819Y5805726D02*
G01*
X1841324Y5805726D01*
X1840511Y5804913D01*
X2863395Y6814639D02*
G01*
X2863395Y6407249D01*
X2801393Y6345247D01*
X2801393Y6341691D01*
X2981429Y6819897D02*
G01*
X2981429Y5873442D01*
X3049958Y5804913D01*
X3189074Y6245705D02*
G01*
X3210537Y6245705D01*
X3438171Y6473339D01*
X3438171Y6859699D01*
X2873783Y7424087D01*
X1862482Y7424087D01*
X1817880Y7379484D01*
X1817880Y7183117D01*
X1840511Y7160486D01*
X1840511Y7104885D01*
X1749986Y7104885D02*
G01*
X1840511Y7104885D01*
D11*
G01*
X1930400Y5397500D03*
G01*
X1308100Y6858000D03*
G01*
X2641600Y7289800D03*
G01*
X3263900Y6616700D03*
D12*
G01*
X2399969Y6264910D03*
G01*
X2399969Y6454902D03*
G01*
X2199970Y6359905D03*
G01*
X1749983Y6914895D03*
G01*
X1749983Y7104887D03*
G01*
X1549984Y7009892D03*
G01*
X3049955Y6914895D03*
G01*
X3049955Y7104887D03*
G01*
X2849956Y7009892D03*
G01*
X1749983Y5614923D03*
G01*
X1749983Y5804915D03*
G01*
X1549984Y5709920D03*
G01*
X3049955Y5614923D03*
G01*
X3049955Y5804915D03*
G01*
X2849956Y5709920D03*
D11*
G01*
X2743200Y5422900D03*
G01*
X1308100Y5842000D03*
G01*
X1968500Y7289800D03*
G01*
X3263900Y6096000D03*
D13*
G01*
X2578100Y6642100D03*
G01*
X2578100Y6108700D03*
G01*
X1993900Y6692900D03*
G01*
X1993900Y6083300D03*
D14*
G01*
X3011297Y7017943D03*
G01*
X3111779Y6000394D03*
G01*
X2260244Y7551724D03*
G01*
X2804693Y5836818D03*
G01*
X1944090Y6436283D03*
G01*
X3064763Y6251600D03*
G01*
X2109088Y5803925D03*
G01*
X2079066Y5410784D03*
G01*
X2142363Y6719443D03*
G01*
X2724150Y6468516D03*
G01*
X2117420Y5640070D03*
G01*
X2766771Y6537299D03*
G01*
X2308453Y5585180D03*
G01*
X2243454Y6077000D03*
G01*
X2255621Y6643420D03*
G01*
X3263900Y6470472D03*
G01*
X2799105Y6097066D03*
G01*
X3188284Y6328562D03*
G01*
X1891817Y5805728D03*
G01*
X2981426Y6819900D03*
G01*
X2863392Y6814642D03*
G01*
X2801391Y6341694D03*
G01*
X3189071Y6245707D03*
M02*
