G04 Layer: BottomLayer*
G04 EasyEDA v6.5.46, 2025-07-23 17:24:06*
G04 74a4e304ba1b453b8bde7bcb9ef7a0d0,7be8f16a26344db1bf46185b0a727cd7,10*
G04 Gerber Generator version 0.2*
G04 Scale: 100 percent, Rotated: No, Reflected: No *
G04 Dimensions in millimeters *
G04 leading zeros omitted , absolute positions ,4 integer and 5 decimal *
%FSLAX45Y45*%
%MOMM*%

%AMMACRO1*21,1,$1,$2,0,0,$3*%
%ADD10C,0.2540*%
%ADD11R,2.0000X2.0000*%
%ADD12MACRO1,1X0.8X-90.0000*%
%ADD13MACRO1,0.54X0.7901X-90.0000*%
%ADD14MACRO1,0.54X0.5656X-90.0000*%
%ADD15MACRO1,0.54X0.5656X90.0000*%
%ADD16R,0.5400X0.5657*%
%ADD17MACRO1,0.54X0.5656X0.0000*%
%ADD18MACRO1,0.35X1.5X-90.0000*%
%ADD19MACRO1,1.5X2.5X-90.0000*%
%ADD20C,2.0000*%
%ADD21C,0.6100*%
%ADD22C,0.0119*%

%LPD*%
G36*
X1222197Y5075174D02*
G01*
X1217879Y5076139D01*
X1214424Y5078831D01*
X1212392Y5082743D01*
X1212189Y5087162D01*
X1213916Y5091226D01*
X1217218Y5094173D01*
X1222603Y5095544D01*
X1240383Y5098796D01*
X1257808Y5103876D01*
X1274572Y5110683D01*
X1290523Y5119217D01*
X1305560Y5129326D01*
X1319479Y5140909D01*
X1332128Y5153863D01*
X1343355Y5168087D01*
X1353058Y5183378D01*
X1361186Y5199532D01*
X1367536Y5216499D01*
X1372158Y5234025D01*
X1374952Y5251907D01*
X1375867Y5269992D01*
X1374952Y5288076D01*
X1372158Y5305958D01*
X1367536Y5323484D01*
X1361186Y5340451D01*
X1353058Y5356606D01*
X1343355Y5371896D01*
X1332128Y5386120D01*
X1319479Y5399074D01*
X1305560Y5410657D01*
X1290523Y5420766D01*
X1274572Y5429300D01*
X1257808Y5436108D01*
X1240383Y5441188D01*
X1222603Y5444439D01*
X1204518Y5445810D01*
X1186434Y5445353D01*
X1168450Y5443016D01*
X1150823Y5438902D01*
X1133754Y5432907D01*
X1117346Y5425236D01*
X1101801Y5415940D01*
X1087323Y5405069D01*
X1074013Y5392775D01*
X1062075Y5379161D01*
X1051560Y5364378D01*
X1042669Y5348630D01*
X1037488Y5336844D01*
X1035253Y5333593D01*
X1031951Y5331460D01*
X1028090Y5330748D01*
X1024229Y5331561D01*
X1020978Y5333746D01*
X1018794Y5337048D01*
X1018032Y5340908D01*
X1018032Y7379055D01*
X1018794Y7382916D01*
X1020978Y7386218D01*
X1024229Y7388402D01*
X1028090Y7389215D01*
X1031951Y7388504D01*
X1035253Y7386370D01*
X1037488Y7383119D01*
X1042669Y7371334D01*
X1051560Y7355586D01*
X1062075Y7340803D01*
X1074013Y7327188D01*
X1087323Y7314895D01*
X1101801Y7304024D01*
X1117346Y7294727D01*
X1133754Y7287056D01*
X1150823Y7281062D01*
X1168450Y7276947D01*
X1186434Y7274610D01*
X1204518Y7274153D01*
X1222603Y7275525D01*
X1240383Y7278776D01*
X1257808Y7283856D01*
X1274572Y7290663D01*
X1290523Y7299198D01*
X1305560Y7309307D01*
X1319479Y7320889D01*
X1332128Y7333843D01*
X1343355Y7348067D01*
X1353058Y7363358D01*
X1361186Y7379512D01*
X1367536Y7396480D01*
X1372158Y7414006D01*
X1374952Y7431887D01*
X1375867Y7449972D01*
X1374952Y7468057D01*
X1372158Y7485938D01*
X1367536Y7503464D01*
X1361186Y7520431D01*
X1353058Y7536586D01*
X1343355Y7551877D01*
X1332128Y7566101D01*
X1319479Y7579055D01*
X1305560Y7590637D01*
X1290523Y7600746D01*
X1283665Y7604404D01*
X1280312Y7607350D01*
X1278483Y7611414D01*
X1278585Y7615834D01*
X1280617Y7619847D01*
X1284122Y7622590D01*
X1288440Y7623556D01*
X3291179Y7623556D01*
X3295446Y7622641D01*
X3298951Y7619949D01*
X3300984Y7616088D01*
X3301237Y7611770D01*
X3299612Y7607706D01*
X3296412Y7604709D01*
X3281832Y7595920D01*
X3267303Y7585049D01*
X3254044Y7572756D01*
X3242056Y7559141D01*
X3231591Y7544358D01*
X3222650Y7528610D01*
X3215436Y7511999D01*
X3209899Y7494778D01*
X3206191Y7477048D01*
X3204362Y7459014D01*
X3204362Y7440930D01*
X3206191Y7422896D01*
X3209899Y7405166D01*
X3215436Y7387945D01*
X3222650Y7371334D01*
X3231591Y7355586D01*
X3242056Y7340803D01*
X3254044Y7327188D01*
X3267303Y7314895D01*
X3281832Y7304024D01*
X3297326Y7294727D01*
X3313734Y7287056D01*
X3330854Y7281062D01*
X3348482Y7276947D01*
X3366414Y7274610D01*
X3384550Y7274153D01*
X3402584Y7275525D01*
X3420414Y7278776D01*
X3437788Y7283856D01*
X3454552Y7290663D01*
X3470554Y7299198D01*
X3485591Y7309307D01*
X3499459Y7320889D01*
X3512108Y7333843D01*
X3523386Y7348067D01*
X3533089Y7363358D01*
X3541166Y7379512D01*
X3546500Y7393635D01*
X3548634Y7397038D01*
X3551885Y7399324D01*
X3555796Y7400188D01*
X3559759Y7399477D01*
X3563112Y7397292D01*
X3565347Y7393990D01*
X3566160Y7390028D01*
X3566160Y5329936D01*
X3565347Y5325973D01*
X3563112Y5322671D01*
X3559759Y5320487D01*
X3555796Y5319776D01*
X3551885Y5320639D01*
X3548634Y5322925D01*
X3546500Y5326329D01*
X3541166Y5340451D01*
X3533089Y5356606D01*
X3523386Y5371896D01*
X3512108Y5386120D01*
X3499459Y5399074D01*
X3485591Y5410657D01*
X3470554Y5420766D01*
X3454552Y5429300D01*
X3437788Y5436108D01*
X3420414Y5441188D01*
X3402584Y5444439D01*
X3384550Y5445810D01*
X3366414Y5445353D01*
X3348482Y5443016D01*
X3330854Y5438902D01*
X3313734Y5432907D01*
X3297326Y5425236D01*
X3281832Y5415940D01*
X3267303Y5405069D01*
X3254044Y5392775D01*
X3242056Y5379161D01*
X3231591Y5364378D01*
X3222650Y5348630D01*
X3215436Y5332018D01*
X3209899Y5314797D01*
X3206191Y5297068D01*
X3204362Y5279034D01*
X3204362Y5260949D01*
X3206191Y5242915D01*
X3209899Y5225186D01*
X3215436Y5207965D01*
X3222650Y5191353D01*
X3231591Y5175605D01*
X3242056Y5160822D01*
X3254044Y5147208D01*
X3267303Y5134914D01*
X3281832Y5124043D01*
X3297326Y5114747D01*
X3313734Y5107076D01*
X3330854Y5101082D01*
X3348482Y5096967D01*
X3360369Y5095392D01*
X3364433Y5093970D01*
X3367532Y5090922D01*
X3369106Y5086858D01*
X3368801Y5082540D01*
X3366770Y5078730D01*
X3363264Y5076088D01*
X3359048Y5075174D01*
G37*

%LPC*%
G36*
X2265781Y5255666D02*
G01*
X2273046Y5255666D01*
X2273046Y5288737D01*
X2239314Y5288737D01*
X2239314Y5282184D01*
X2240026Y5275834D01*
X2241956Y5270398D01*
X2245055Y5265470D01*
X2249119Y5261406D01*
X2254046Y5258308D01*
X2259482Y5256428D01*
G37*
G36*
X2313990Y5255666D02*
G01*
X2321255Y5255666D01*
X2327554Y5256428D01*
X2333447Y5258460D01*
X2336800Y5259019D01*
X2340152Y5258460D01*
X2346045Y5256428D01*
X2352344Y5255666D01*
X2407818Y5255666D01*
X2414117Y5256428D01*
X2419553Y5258308D01*
X2424480Y5261406D01*
X2428544Y5265470D01*
X2431643Y5270398D01*
X2433574Y5275834D01*
X2434285Y5282184D01*
X2434285Y5325414D01*
X2435250Y5329732D01*
X2437993Y5333288D01*
X2442108Y5336641D01*
X3005582Y5900115D01*
X3008884Y5902299D01*
X3012744Y5903061D01*
X3092754Y5903061D01*
X3096615Y5902299D01*
X3099917Y5900115D01*
X3102102Y5896813D01*
X3102914Y5892901D01*
X3102914Y5878372D01*
X3102203Y5874715D01*
X3100273Y5871565D01*
X3097276Y5869330D01*
X3086049Y5866028D01*
X3079343Y5862472D01*
X3073501Y5857697D01*
X3068726Y5851855D01*
X3065170Y5845149D01*
X3062986Y5837936D01*
X3062173Y5829909D01*
X3062173Y5732881D01*
X3062986Y5724855D01*
X3065170Y5717590D01*
X3068726Y5710936D01*
X3073857Y5704738D01*
X3090519Y5688025D01*
X3096717Y5682945D01*
X3103422Y5679389D01*
X3110636Y5677154D01*
X3116122Y5676646D01*
X3119678Y5675579D01*
X3122676Y5673344D01*
X3124606Y5670194D01*
X3125266Y5666536D01*
X3125266Y5615584D01*
X3126028Y5609234D01*
X3127908Y5603798D01*
X3131007Y5598871D01*
X3135071Y5594807D01*
X3139998Y5591708D01*
X3145434Y5589828D01*
X3151784Y5589066D01*
X3350615Y5589066D01*
X3356965Y5589828D01*
X3362401Y5591708D01*
X3367328Y5594807D01*
X3371392Y5598871D01*
X3374491Y5603798D01*
X3376371Y5609234D01*
X3377133Y5615584D01*
X3377133Y5720384D01*
X3377946Y5724448D01*
X3380333Y5727852D01*
X3383889Y5729986D01*
X3390036Y5732119D01*
X3394913Y5735218D01*
X3399028Y5739282D01*
X3402076Y5744210D01*
X3404006Y5749645D01*
X3404717Y5755995D01*
X3404717Y5904839D01*
X3404006Y5911138D01*
X3402076Y5916625D01*
X3399028Y5921502D01*
X3394913Y5925616D01*
X3390036Y5928715D01*
X3384550Y5930595D01*
X3378250Y5931306D01*
X3214319Y5931306D01*
X3210407Y5932068D01*
X3207156Y5934303D01*
X3204921Y5937605D01*
X3204159Y5941466D01*
X3204921Y5945378D01*
X3207156Y5948680D01*
X3275888Y6017412D01*
X3281019Y6023660D01*
X3284575Y6030315D01*
X3286760Y6037529D01*
X3287572Y6045555D01*
X3287572Y6413195D01*
X3288080Y6416395D01*
X3289554Y6419240D01*
X3291890Y6421526D01*
X3300120Y6427266D01*
X3307079Y6434226D01*
X3312718Y6442303D01*
X3316884Y6451193D01*
X3319424Y6460693D01*
X3320287Y6470446D01*
X3319424Y6480251D01*
X3316884Y6489750D01*
X3312718Y6498640D01*
X3307079Y6506718D01*
X3300120Y6513626D01*
X3292094Y6519265D01*
X3283204Y6523431D01*
X3273704Y6525971D01*
X3263900Y6526834D01*
X3253232Y6525920D01*
X3249422Y6526276D01*
X3246069Y6528054D01*
X3240532Y6532422D01*
X3233775Y6536029D01*
X3226562Y6538214D01*
X3218535Y6538976D01*
X3114700Y6538976D01*
X3110839Y6539788D01*
X3107537Y6541973D01*
X3105302Y6545275D01*
X3104540Y6549135D01*
X3105302Y6553047D01*
X3107537Y6556349D01*
X3114852Y6563664D01*
X3119932Y6569862D01*
X3123488Y6576517D01*
X3125724Y6583781D01*
X3126486Y6591808D01*
X3126486Y6809333D01*
X3127248Y6813245D01*
X3129483Y6816496D01*
X3132785Y6818731D01*
X3136646Y6819493D01*
X3378200Y6819493D01*
X3384550Y6820204D01*
X3389985Y6822135D01*
X3394913Y6825183D01*
X3398977Y6829298D01*
X3402076Y6834174D01*
X3404006Y6839661D01*
X3404717Y6845960D01*
X3404717Y6994855D01*
X3404006Y7001154D01*
X3402076Y7006640D01*
X3398977Y7011517D01*
X3394913Y7015632D01*
X3389985Y7018680D01*
X3383889Y7020814D01*
X3380333Y7022947D01*
X3377946Y7026351D01*
X3377133Y7030415D01*
X3377133Y7135215D01*
X3376371Y7141565D01*
X3374491Y7147001D01*
X3371392Y7151928D01*
X3367328Y7155992D01*
X3362401Y7159091D01*
X3356965Y7160971D01*
X3350615Y7161682D01*
X3151784Y7161682D01*
X3145434Y7160971D01*
X3139998Y7159091D01*
X3135071Y7155992D01*
X3131007Y7151928D01*
X3127908Y7147001D01*
X3126028Y7141565D01*
X3125266Y7135215D01*
X3125266Y7084263D01*
X3124606Y7080605D01*
X3122676Y7077456D01*
X3119678Y7075170D01*
X3116122Y7074153D01*
X3110636Y7073595D01*
X3103422Y7071410D01*
X3096717Y7067854D01*
X3090519Y7062724D01*
X3074365Y7046569D01*
X3070656Y7044232D01*
X3066288Y7043674D01*
X3062071Y7044994D01*
X3058820Y7047941D01*
X3054502Y7054189D01*
X3047542Y7061098D01*
X3039465Y7066737D01*
X3030575Y7070902D01*
X3021076Y7073442D01*
X3013049Y7074153D01*
X3009646Y7075068D01*
X3006750Y7077100D01*
X2682392Y7401407D01*
X2676194Y7406538D01*
X2669540Y7410094D01*
X2662275Y7412278D01*
X2654249Y7413091D01*
X2454198Y7413091D01*
X2450287Y7413853D01*
X2446985Y7416088D01*
X2444800Y7419340D01*
X2444038Y7423251D01*
X2444038Y7455916D01*
X2443327Y7462266D01*
X2441397Y7467701D01*
X2438298Y7472629D01*
X2434234Y7476693D01*
X2429306Y7479792D01*
X2423871Y7481671D01*
X2417521Y7482382D01*
X2339695Y7482382D01*
X2333345Y7481671D01*
X2327452Y7479639D01*
X2324100Y7479080D01*
X2320747Y7479639D01*
X2314854Y7481671D01*
X2308504Y7482382D01*
X2295702Y7482382D01*
X2295702Y7449362D01*
X2303018Y7449362D01*
X2306929Y7448600D01*
X2310231Y7446365D01*
X2312416Y7443063D01*
X2313178Y7439202D01*
X2313178Y7419797D01*
X2312416Y7415936D01*
X2310231Y7412634D01*
X2306929Y7410399D01*
X2303018Y7409637D01*
X2295702Y7409637D01*
X2295702Y7376566D01*
X2301595Y7376566D01*
X2305456Y7375804D01*
X2308758Y7373620D01*
X2310993Y7370318D01*
X2311755Y7366406D01*
X2310993Y7362545D01*
X2308758Y7359243D01*
X1966975Y7017410D01*
X1961845Y7011212D01*
X1958289Y7004507D01*
X1956104Y6997293D01*
X1955292Y6989267D01*
X1955292Y6819900D01*
X1954580Y6816090D01*
X1952447Y6812838D01*
X1949297Y6810603D01*
X1935378Y6804355D01*
X1922373Y6796481D01*
X1910435Y6787134D01*
X1899666Y6776364D01*
X1890318Y6764426D01*
X1882444Y6751421D01*
X1876196Y6737553D01*
X1871675Y6723024D01*
X1868932Y6708089D01*
X1868017Y6692900D01*
X1868932Y6677710D01*
X1871675Y6662775D01*
X1876196Y6648246D01*
X1882444Y6634378D01*
X1890318Y6621373D01*
X1899666Y6609435D01*
X1910435Y6598666D01*
X1922373Y6589318D01*
X1935378Y6581444D01*
X1949246Y6575196D01*
X1963775Y6570675D01*
X1978710Y6567931D01*
X1985518Y6567525D01*
X1989226Y6566560D01*
X1992375Y6564274D01*
X1994407Y6560972D01*
X1995068Y6557162D01*
X1994255Y6553403D01*
X1992071Y6550202D01*
X1988159Y6546291D01*
X1984857Y6544056D01*
X1980946Y6543294D01*
X1918919Y6543294D01*
X1910892Y6542481D01*
X1903679Y6540296D01*
X1896973Y6536740D01*
X1890775Y6531609D01*
X1765300Y6406184D01*
X1760169Y6399936D01*
X1756613Y6393281D01*
X1754428Y6386068D01*
X1753666Y6378041D01*
X1753666Y5698083D01*
X1754428Y5690057D01*
X1756613Y5682843D01*
X1760169Y5676188D01*
X1765300Y5669940D01*
X2019909Y5415330D01*
X2021941Y5412435D01*
X2022856Y5409031D01*
X2023567Y5401005D01*
X2026107Y5391505D01*
X2030272Y5382615D01*
X2035911Y5374538D01*
X2042820Y5367578D01*
X2050897Y5361940D01*
X2059787Y5357825D01*
X2069287Y5355285D01*
X2079091Y5354421D01*
X2088845Y5355285D01*
X2098344Y5357825D01*
X2107234Y5361940D01*
X2115312Y5367578D01*
X2122271Y5374538D01*
X2127910Y5382615D01*
X2132025Y5391505D01*
X2134565Y5401005D01*
X2135428Y5410758D01*
X2134565Y5420563D01*
X2132025Y5430062D01*
X2127910Y5438952D01*
X2122271Y5447030D01*
X2115312Y5453938D01*
X2107234Y5459577D01*
X2098344Y5463743D01*
X2088845Y5466283D01*
X2080818Y5466994D01*
X2077415Y5467908D01*
X2074519Y5469940D01*
X1833829Y5710631D01*
X1831644Y5713933D01*
X1830882Y5717794D01*
X1830882Y5762752D01*
X1831644Y5766612D01*
X1833829Y5769914D01*
X1837131Y5772150D01*
X1841042Y5772912D01*
X1844903Y5772150D01*
X1848205Y5769914D01*
X1855571Y5762548D01*
X1863648Y5756910D01*
X1872538Y5752744D01*
X1882038Y5750204D01*
X1891842Y5749340D01*
X1901596Y5750204D01*
X1911096Y5752744D01*
X1919986Y5756910D01*
X1928063Y5762548D01*
X1935022Y5769508D01*
X1940661Y5777534D01*
X1944776Y5786424D01*
X1947316Y5795924D01*
X1948027Y5804001D01*
X1948942Y5807405D01*
X1950974Y5810300D01*
X2038248Y5897575D01*
X2041550Y5899759D01*
X2045462Y5900521D01*
X2241854Y5900521D01*
X2245766Y5899759D01*
X2249068Y5897575D01*
X2251252Y5894273D01*
X2252014Y5890361D01*
X2252014Y5853633D01*
X2251557Y5849467D01*
X2249424Y5845860D01*
X2246020Y5843422D01*
X2241905Y5842508D01*
X2154123Y5842508D01*
X2150211Y5843320D01*
X2146909Y5845505D01*
X2145334Y5847080D01*
X2137257Y5852718D01*
X2128367Y5856884D01*
X2118868Y5859424D01*
X2109114Y5860288D01*
X2099310Y5859424D01*
X2089810Y5856884D01*
X2080920Y5852718D01*
X2072843Y5847080D01*
X2065934Y5840171D01*
X2060295Y5832094D01*
X2056130Y5823204D01*
X2053589Y5813704D01*
X2052726Y5803900D01*
X2053589Y5794146D01*
X2056130Y5784646D01*
X2060295Y5775756D01*
X2065934Y5767679D01*
X2072843Y5760720D01*
X2080920Y5755081D01*
X2089810Y5750966D01*
X2099310Y5748426D01*
X2109114Y5747562D01*
X2118868Y5748426D01*
X2128367Y5750966D01*
X2137257Y5755081D01*
X2145334Y5760720D01*
X2146909Y5762345D01*
X2150211Y5764530D01*
X2154123Y5765292D01*
X2284577Y5765292D01*
X2292604Y5766104D01*
X2299817Y5768289D01*
X2306472Y5771845D01*
X2312720Y5776976D01*
X2333193Y5797448D01*
X2338273Y5803646D01*
X2341829Y5810300D01*
X2344064Y5817565D01*
X2344267Y5819648D01*
X2345232Y5823204D01*
X2347417Y5826099D01*
X2350516Y5828080D01*
X2354122Y5828842D01*
X2358745Y5827928D01*
X2365044Y5827166D01*
X2372309Y5827166D01*
X2372309Y5860237D01*
X2370582Y5860237D01*
X2366670Y5860999D01*
X2363368Y5863234D01*
X2361184Y5866536D01*
X2360422Y5870397D01*
X2360422Y5889802D01*
X2361184Y5893663D01*
X2363368Y5896965D01*
X2366670Y5899200D01*
X2370582Y5899962D01*
X2379014Y5899962D01*
X2382469Y5900521D01*
X2403094Y5900521D01*
X2406548Y5899962D01*
X2453690Y5899962D01*
X2457145Y5900521D01*
X2600096Y5900521D01*
X2608122Y5901334D01*
X2615336Y5903518D01*
X2621991Y5907074D01*
X2628239Y5912205D01*
X2761335Y6045352D01*
X2764790Y6047587D01*
X2768854Y6048298D01*
X2772816Y6047333D01*
X2779826Y6044082D01*
X2789326Y6041542D01*
X2799130Y6040678D01*
X2808884Y6041542D01*
X2818333Y6044082D01*
X2828391Y6048806D01*
X2831795Y6049670D01*
X2834081Y6052870D01*
X2837942Y6056477D01*
X2840685Y6058306D01*
X2845003Y6059220D01*
X2849422Y6060592D01*
X2853791Y6060948D01*
X2858617Y6058966D01*
X2861513Y6056122D01*
X2863088Y6052413D01*
X2863088Y6048349D01*
X2861513Y6044590D01*
X2858566Y6041796D01*
X2849422Y6036005D01*
X2845663Y6035294D01*
X2842869Y6035294D01*
X2842869Y6033465D01*
X2843682Y6026556D01*
X2843682Y6024270D01*
X2842869Y6017310D01*
X2842869Y5983478D01*
X2843580Y5977128D01*
X2845511Y5971692D01*
X2848610Y5966815D01*
X2852674Y5962700D01*
X2857601Y5959602D01*
X2863037Y5957722D01*
X2869387Y5957011D01*
X2928721Y5957011D01*
X2932633Y5956198D01*
X2935935Y5954014D01*
X2938119Y5950712D01*
X2938881Y5946851D01*
X2938119Y5942939D01*
X2935935Y5939637D01*
X2462123Y5465826D01*
X2458872Y5463641D01*
X2455062Y5462879D01*
X2451252Y5463540D01*
X2447950Y5465622D01*
X2445715Y5468772D01*
X2444750Y5472531D01*
X2445308Y5476392D01*
X2446274Y5479034D01*
X2446985Y5485384D01*
X2446985Y5491937D01*
X2413254Y5491937D01*
X2413254Y5458866D01*
X2420518Y5458866D01*
X2426817Y5459628D01*
X2429510Y5460542D01*
X2433320Y5461101D01*
X2437079Y5460187D01*
X2440228Y5457901D01*
X2442311Y5454599D01*
X2443022Y5450789D01*
X2442210Y5446979D01*
X2440025Y5443778D01*
X2401468Y5405221D01*
X2398166Y5402986D01*
X2394254Y5402224D01*
X2380589Y5402224D01*
X2372563Y5401411D01*
X2365349Y5399227D01*
X2358644Y5395671D01*
X2352802Y5390896D01*
X2348026Y5385054D01*
X2344470Y5378348D01*
X2342286Y5371134D01*
X2342083Y5369001D01*
X2341067Y5365496D01*
X2338882Y5362600D01*
X2335784Y5360619D01*
X2332228Y5359857D01*
X2327554Y5360771D01*
X2321255Y5361482D01*
X2313990Y5361482D01*
X2313990Y5328462D01*
X2315718Y5328462D01*
X2319629Y5327700D01*
X2322931Y5325465D01*
X2325116Y5322163D01*
X2325878Y5318302D01*
X2325878Y5298897D01*
X2325116Y5295036D01*
X2322931Y5291734D01*
X2319629Y5289499D01*
X2315718Y5288737D01*
X2313990Y5288737D01*
G37*
G36*
X2239314Y5328462D02*
G01*
X2273046Y5328462D01*
X2273046Y5361482D01*
X2265781Y5361482D01*
X2259482Y5360771D01*
X2254046Y5358892D01*
X2249119Y5355793D01*
X2245055Y5351729D01*
X2241956Y5346801D01*
X2240026Y5341366D01*
X2239314Y5335016D01*
G37*
G36*
X2278481Y5458866D02*
G01*
X2333955Y5458866D01*
X2340254Y5459628D01*
X2346147Y5461660D01*
X2349500Y5462219D01*
X2352852Y5461660D01*
X2358745Y5459628D01*
X2365044Y5458866D01*
X2372309Y5458866D01*
X2372309Y5491937D01*
X2370582Y5491937D01*
X2366670Y5492699D01*
X2363368Y5494934D01*
X2361184Y5498236D01*
X2360422Y5502097D01*
X2360422Y5521502D01*
X2361184Y5525363D01*
X2363368Y5528665D01*
X2366670Y5530900D01*
X2370582Y5531662D01*
X2372309Y5531662D01*
X2372309Y5564886D01*
X2368804Y5566206D01*
X2366060Y5568696D01*
X2364384Y5572048D01*
X2363978Y5575757D01*
X2364841Y5585155D01*
X2363978Y5594959D01*
X2361438Y5604459D01*
X2357272Y5613349D01*
X2351786Y5621223D01*
X2350211Y5624728D01*
X2350058Y5628589D01*
X2351379Y5632196D01*
X2353919Y5635091D01*
X2357374Y5636818D01*
X2361234Y5637123D01*
X2365044Y5636666D01*
X2372309Y5636666D01*
X2372309Y5669737D01*
X2370582Y5669737D01*
X2366670Y5670499D01*
X2363368Y5672734D01*
X2361184Y5676036D01*
X2360422Y5679897D01*
X2360422Y5699302D01*
X2361184Y5703163D01*
X2363368Y5706465D01*
X2366670Y5708700D01*
X2370582Y5709462D01*
X2372309Y5709462D01*
X2372309Y5742482D01*
X2365044Y5742482D01*
X2358745Y5741771D01*
X2352852Y5739739D01*
X2349500Y5739180D01*
X2346147Y5739739D01*
X2340254Y5741771D01*
X2333955Y5742482D01*
X2278481Y5742482D01*
X2272182Y5741771D01*
X2266746Y5739892D01*
X2261819Y5736793D01*
X2255469Y5730290D01*
X2252522Y5728766D01*
X2249271Y5728208D01*
X2167432Y5728208D01*
X2159406Y5727395D01*
X2152192Y5725210D01*
X2145538Y5721654D01*
X2139289Y5716524D01*
X2121966Y5699201D01*
X2119071Y5697220D01*
X2115667Y5696305D01*
X2107641Y5695594D01*
X2098141Y5693054D01*
X2089251Y5688888D01*
X2081174Y5683250D01*
X2074265Y5676290D01*
X2068626Y5668264D01*
X2064461Y5659323D01*
X2061921Y5649874D01*
X2061057Y5640070D01*
X2061921Y5630265D01*
X2064461Y5620766D01*
X2068626Y5611876D01*
X2074265Y5603849D01*
X2081174Y5596890D01*
X2089251Y5591251D01*
X2098141Y5587085D01*
X2107641Y5584545D01*
X2117445Y5583682D01*
X2127199Y5584545D01*
X2136698Y5587085D01*
X2145588Y5591251D01*
X2153666Y5596890D01*
X2160625Y5603849D01*
X2166264Y5611876D01*
X2170379Y5620766D01*
X2172919Y5630265D01*
X2173630Y5638342D01*
X2174544Y5641746D01*
X2176576Y5644642D01*
X2179980Y5647994D01*
X2183282Y5650230D01*
X2187143Y5650992D01*
X2249271Y5650992D01*
X2252522Y5650433D01*
X2255469Y5648909D01*
X2261819Y5642406D01*
X2266035Y5639765D01*
X2268728Y5637276D01*
X2270353Y5634075D01*
X2270760Y5630468D01*
X2269896Y5626963D01*
X2267813Y5623966D01*
X2265273Y5621426D01*
X2259634Y5613349D01*
X2255469Y5604459D01*
X2252929Y5594959D01*
X2252065Y5585155D01*
X2252929Y5575401D01*
X2255469Y5565902D01*
X2257044Y5562549D01*
X2257958Y5559298D01*
X2257755Y5555945D01*
X2256434Y5552846D01*
X2254656Y5550001D01*
X2252726Y5544566D01*
X2252014Y5538216D01*
X2252014Y5485384D01*
X2252726Y5479034D01*
X2254656Y5473598D01*
X2257755Y5468670D01*
X2261819Y5464606D01*
X2266746Y5461508D01*
X2272182Y5459628D01*
G37*
G36*
X2413254Y5531662D02*
G01*
X2446985Y5531662D01*
X2446985Y5538216D01*
X2446274Y5544566D01*
X2444343Y5550001D01*
X2441244Y5554929D01*
X2437180Y5558993D01*
X2432253Y5562092D01*
X2426817Y5563971D01*
X2420518Y5564682D01*
X2413254Y5564682D01*
G37*
G36*
X2413254Y5636666D02*
G01*
X2420518Y5636666D01*
X2426817Y5637428D01*
X2432253Y5639308D01*
X2437180Y5642406D01*
X2441244Y5646470D01*
X2444343Y5651398D01*
X2446274Y5656834D01*
X2446985Y5663184D01*
X2446985Y5669737D01*
X2413254Y5669737D01*
G37*
G36*
X2413254Y5709462D02*
G01*
X2446985Y5709462D01*
X2446985Y5716016D01*
X2446274Y5722366D01*
X2444343Y5727801D01*
X2441244Y5732729D01*
X2437180Y5736793D01*
X2432253Y5739892D01*
X2426817Y5741771D01*
X2420518Y5742482D01*
X2413254Y5742482D01*
G37*
G36*
X2413254Y5827166D02*
G01*
X2420518Y5827166D01*
X2426817Y5827928D01*
X2432253Y5829808D01*
X2437180Y5832906D01*
X2441244Y5836970D01*
X2444343Y5841898D01*
X2446274Y5847334D01*
X2446985Y5853684D01*
X2446985Y5860237D01*
X2413254Y5860237D01*
G37*
G36*
X2230678Y7376566D02*
G01*
X2243480Y7376566D01*
X2243480Y7409637D01*
X2204161Y7409637D01*
X2204161Y7403084D01*
X2204872Y7396734D01*
X2206802Y7391298D01*
X2209901Y7386370D01*
X2213965Y7382306D01*
X2218893Y7379208D01*
X2224328Y7377328D01*
G37*
G36*
X2204161Y7449362D02*
G01*
X2243480Y7449362D01*
X2243480Y7482382D01*
X2230678Y7482382D01*
X2224328Y7481671D01*
X2218893Y7479792D01*
X2213965Y7476693D01*
X2209901Y7472629D01*
X2206802Y7467701D01*
X2204872Y7462266D01*
X2204161Y7455916D01*
G37*

%LPD*%
G36*
X1841042Y5838545D02*
G01*
X1837131Y5839307D01*
X1833829Y5841542D01*
X1831644Y5844844D01*
X1830882Y5848705D01*
X1830882Y6358331D01*
X1831644Y6362192D01*
X1833829Y6365494D01*
X1931416Y6463080D01*
X1934718Y6465316D01*
X1938629Y6466078D01*
X1963572Y6466078D01*
X1967788Y6465163D01*
X1971243Y6462623D01*
X1973325Y6458813D01*
X1973630Y6454546D01*
X1972157Y6450533D01*
X1969007Y6445453D01*
X1967128Y6440017D01*
X1966417Y6433718D01*
X1966417Y6426454D01*
X1999437Y6426454D01*
X1999437Y6456730D01*
X2000148Y6460388D01*
X2002078Y6463588D01*
X2005025Y6465824D01*
X2015947Y6469075D01*
X2025904Y6474409D01*
X2026564Y6474510D01*
X2028596Y6477508D01*
X2122932Y6571843D01*
X2126234Y6574028D01*
X2130094Y6574790D01*
X2134006Y6574028D01*
X2137257Y6571843D01*
X2139492Y6568541D01*
X2140254Y6564630D01*
X2140254Y6444183D01*
X2139492Y6440271D01*
X2137257Y6436969D01*
X2088743Y6388455D01*
X2085492Y6386271D01*
X2081580Y6385509D01*
X2039162Y6385509D01*
X2039162Y6383782D01*
X2038400Y6379870D01*
X2036165Y6376568D01*
X2032863Y6374384D01*
X2029002Y6373622D01*
X2009597Y6373622D01*
X2005736Y6374384D01*
X2002434Y6376568D01*
X2000199Y6379870D01*
X1999437Y6383782D01*
X1999437Y6385509D01*
X1966417Y6385509D01*
X1966417Y6378244D01*
X1967128Y6371945D01*
X1969160Y6366052D01*
X1969719Y6362700D01*
X1969160Y6359347D01*
X1967128Y6353454D01*
X1966417Y6347155D01*
X1966417Y6291681D01*
X1967128Y6285382D01*
X1969007Y6279946D01*
X1972106Y6275019D01*
X1978609Y6268669D01*
X1980133Y6265722D01*
X1980692Y6262471D01*
X1980692Y6217107D01*
X1980082Y6213652D01*
X1978355Y6210604D01*
X1975662Y6208318D01*
X1972360Y6207099D01*
X1963775Y6205524D01*
X1949246Y6201003D01*
X1935378Y6194755D01*
X1922373Y6186881D01*
X1910435Y6177534D01*
X1899666Y6166764D01*
X1890318Y6154826D01*
X1882444Y6141821D01*
X1876196Y6127953D01*
X1871675Y6113424D01*
X1868932Y6098489D01*
X1868017Y6083300D01*
X1868932Y6068110D01*
X1871675Y6053175D01*
X1876196Y6038646D01*
X1882444Y6024778D01*
X1890318Y6011773D01*
X1899666Y5999835D01*
X1910435Y5989066D01*
X1922373Y5979718D01*
X1935378Y5971844D01*
X1949246Y5965596D01*
X1963775Y5961075D01*
X1969058Y5960110D01*
X1973122Y5958382D01*
X1976069Y5955131D01*
X1977339Y5950966D01*
X1976780Y5946597D01*
X1974392Y5942939D01*
X1896364Y5864860D01*
X1893468Y5862878D01*
X1890064Y5861964D01*
X1882038Y5861253D01*
X1872538Y5858713D01*
X1863648Y5854547D01*
X1855571Y5848908D01*
X1848205Y5841542D01*
X1844903Y5839307D01*
G37*

%LPC*%
G36*
X2039162Y6426454D02*
G01*
X2072182Y6426454D01*
X2072182Y6433718D01*
X2071471Y6440017D01*
X2069592Y6445453D01*
X2066493Y6450380D01*
X2062429Y6454444D01*
X2057501Y6457543D01*
X2052066Y6459474D01*
X2045716Y6460185D01*
X2039162Y6460185D01*
G37*

%LPD*%
D10*
X2943786Y6750403D02*
G01*
X2686408Y6750403D01*
X2578102Y6642097D01*
X2578102Y6108697D02*
G01*
X2324102Y6362697D01*
X2324102Y6831886D01*
X3011299Y7017941D02*
G01*
X2654759Y7374481D01*
X2378610Y7374481D01*
X2378610Y7429497D02*
G01*
X2378610Y7374481D01*
X2378610Y7374481D02*
G01*
X1993902Y6989772D01*
X1993902Y6692897D01*
X2943786Y6000391D02*
G01*
X3111781Y6000391D01*
X2269594Y7429497D02*
G01*
X2269594Y7542375D01*
X2260246Y7551722D01*
X1974395Y6405979D02*
G01*
X1944093Y6436281D01*
X2392784Y5836815D02*
G01*
X2392784Y5689597D01*
X2392784Y5880097D02*
G01*
X2392784Y5836815D01*
X2392784Y5836815D02*
G01*
X2804695Y5836815D01*
X2804695Y5836815D02*
G01*
X2804695Y6014311D01*
X2840789Y6050404D01*
X2943786Y6050404D02*
G01*
X2840789Y6050404D01*
X2293520Y5363613D02*
G01*
X2250975Y5363613D01*
X1833145Y5781443D01*
X1833145Y6264729D01*
X1974395Y6405979D01*
X2019302Y6405979D02*
G01*
X1974395Y6405979D01*
X2293520Y5308597D02*
G01*
X2293520Y5363613D01*
X2392784Y5511797D02*
G01*
X2392784Y5456781D01*
X2392784Y5456781D02*
G01*
X2299616Y5363613D01*
X2293520Y5363613D01*
X2392784Y5689597D02*
G01*
X2392784Y5511797D01*
X2943786Y6350403D02*
G01*
X3046808Y6350403D01*
X3064766Y6251597D02*
G01*
X3064766Y6332446D01*
X3046808Y6350403D01*
X2306220Y5880097D02*
G01*
X2306220Y5825081D01*
X2109091Y5803922D02*
G01*
X2285062Y5803922D01*
X2306220Y5825081D01*
X2142365Y6719440D02*
G01*
X2137971Y6715046D01*
X2137971Y6641487D01*
X2001166Y6504683D01*
X1918413Y6504683D01*
X1792251Y6378521D01*
X1792251Y5697598D01*
X2079068Y5410781D01*
X2943786Y6400391D02*
G01*
X2792275Y6400391D01*
X2724152Y6468513D01*
X2117422Y5640067D02*
G01*
X2166952Y5689597D01*
X2306220Y5689597D01*
X2943786Y6450403D02*
G01*
X2840789Y6450403D01*
X2766773Y6537297D02*
G01*
X2840789Y6463281D01*
X2840789Y6450403D01*
X2308456Y5585178D02*
G01*
X2306220Y5582942D01*
X2306220Y5511797D01*
X2255624Y6643418D02*
G01*
X2255624Y6089164D01*
X2243457Y6076998D01*
X2380084Y5363613D02*
G01*
X2414475Y5363613D01*
X2992554Y5941692D01*
X3145563Y5941692D01*
X3248941Y6045070D01*
X3248941Y6470469D01*
X2380084Y5308597D02*
G01*
X2380084Y5363613D01*
X2943786Y6500390D02*
G01*
X3219020Y6500390D01*
X3248941Y6470469D01*
X3248941Y6470469D02*
G01*
X3263902Y6470469D01*
X2943786Y6600390D02*
G01*
X2746910Y6600390D01*
X2646580Y6500060D01*
X2530426Y6500060D01*
X2435735Y6594751D01*
X2435735Y6859165D01*
X2384833Y6910067D01*
X2259281Y6910067D01*
X2214196Y6864982D01*
X2214196Y6708289D01*
X2178865Y6672958D01*
X2178865Y6423962D01*
X2074318Y6319415D01*
X2019302Y6319415D02*
G01*
X2074318Y6319415D01*
X2019302Y6319415D02*
G01*
X2019302Y6108697D01*
X1993902Y6083297D01*
X2943786Y6100391D02*
G01*
X2840789Y6100391D01*
X2799107Y6097064D02*
G01*
X2837461Y6097064D01*
X2840789Y6100391D01*
X2943786Y6200391D02*
G01*
X3033016Y6200391D01*
X3040484Y6192923D01*
X3089074Y6192923D01*
X3123440Y6227290D01*
X3123440Y6263713D01*
X3188286Y6328559D01*
X2840789Y6250404D02*
G01*
X2740433Y6150048D01*
X2740433Y6079004D01*
X2600581Y5939152D01*
X2025246Y5939152D01*
X1891819Y5805726D01*
X2943786Y6250404D02*
G01*
X2840789Y6250404D01*
X2840789Y6300391D02*
G01*
X2840789Y6302296D01*
X2801393Y6341691D01*
X2943786Y6300391D02*
G01*
X2840789Y6300391D01*
X2981429Y6819897D02*
G01*
X2868653Y6819897D01*
X2863395Y6814639D01*
X2943786Y6150404D02*
G01*
X3104339Y6150404D01*
X3189074Y6235138D01*
X3189074Y6245705D01*
X3251202Y5714997D02*
G01*
X3118157Y5714997D01*
X3100783Y5732371D01*
X3100783Y5830415D01*
X3253793Y5830415D02*
G01*
X3100783Y5830415D01*
X3253793Y6920405D02*
G01*
X3100783Y6920405D01*
X3251202Y7035797D02*
G01*
X3118157Y7035797D01*
X3100783Y7018423D01*
X3100783Y6920405D01*
X2943786Y6550403D02*
G01*
X3046986Y6550403D01*
X3087880Y6591297D01*
X3087880Y6854212D01*
X2802003Y7140089D01*
X2341323Y7140089D01*
X2297127Y7095893D01*
X2297127Y7061883D01*
X2229106Y7061883D02*
G01*
X2297127Y7061883D01*
X3046808Y6700390D02*
G01*
X3046986Y6700568D01*
X3046986Y6837321D01*
X2822399Y7061908D01*
X2419098Y7061908D01*
X2943786Y6700390D02*
G01*
X3046808Y6700390D01*
D11*
G01*
X3251200Y5715000D03*
G01*
X3251200Y7035800D03*
D12*
G01*
X2419101Y7061901D03*
G01*
X2324105Y6831898D03*
G01*
X2229098Y7061898D03*
D13*
G01*
X2378605Y7429500D03*
G01*
X2269594Y7429500D03*
D14*
G01*
X2392782Y5880100D03*
G01*
X2306217Y5880100D03*
G01*
X2392782Y5689600D03*
G01*
X2306217Y5689600D03*
G01*
X2392782Y5511800D03*
G01*
X2306217Y5511800D03*
D15*
G01*
X2293517Y5308600D03*
G01*
X2380082Y5308600D03*
D16*
G01*
X2019300Y6405981D03*
D17*
G01*
X2019300Y6319417D03*
D18*
G01*
X2943793Y6000404D03*
G01*
X2943795Y6050404D03*
G01*
X2943795Y6100404D03*
G01*
X2943795Y6150404D03*
G01*
X2943795Y6200404D03*
G01*
X2943795Y6250404D03*
G01*
X2943795Y6300403D03*
G01*
X2943795Y6350403D03*
G01*
X2943795Y6400403D03*
G01*
X2943795Y6450403D03*
G01*
X2943795Y6500403D03*
G01*
X2943795Y6550403D03*
G01*
X2943795Y6600403D03*
G01*
X2943795Y6650403D03*
G01*
X2943795Y6700403D03*
G01*
X2943795Y6750403D03*
D19*
G01*
X3253797Y5830406D03*
G01*
X3253792Y6920401D03*
D20*
G01*
X2578100Y6642100D03*
G01*
X2578100Y6108700D03*
G01*
X1993900Y6692900D03*
G01*
X1993900Y6083300D03*
D21*
G01*
X3011297Y7017943D03*
G01*
X3111779Y6000394D03*
G01*
X2260244Y7551724D03*
G01*
X2804693Y5836818D03*
G01*
X1944090Y6436283D03*
G01*
X3064763Y6251600D03*
G01*
X2109088Y5803925D03*
G01*
X2079066Y5410784D03*
G01*
X2142363Y6719443D03*
G01*
X2724150Y6468516D03*
G01*
X2117420Y5640070D03*
G01*
X2766771Y6537299D03*
G01*
X2308453Y5585180D03*
G01*
X2243454Y6077000D03*
G01*
X2255621Y6643420D03*
G01*
X3263900Y6470472D03*
G01*
X2799105Y6097066D03*
G01*
X3188284Y6328562D03*
G01*
X1891817Y5805728D03*
G01*
X2981426Y6819900D03*
G01*
X2863392Y6814642D03*
G01*
X2801391Y6341694D03*
G01*
X3189071Y6245707D03*
M02*
