M48
METRIC,LZ,000.000
;FILE_FORMAT=3:3
;TYPE=PLATED
;Layer: PTH_Through
;EasyEDA v6.5.46, 2025-07-23 17:18:39
;4d1536246bbc4f27acf5b42e0466264c,7be8f16a26344db1bf46185b0a727cd7,10
;Gerber Generator version 0.2
;Holesize 1 = 0.306 mm
T01C0.306
;Holesize 2 = 1.000 mm
T02C1.000
;Holesize 3 = 1.200 mm
T03C1.200
;Holesize 4 = 1.501 mm
T04C1.501
;Holesize 5 = 1.600 mm
T05C1.600
%
G05
G90
T01
X027546Y039141
X025906Y030020
X024209Y051091
X035502Y053849
X024431Y046711
X038761Y030726
X038054Y027342
X035502Y024310
X024001Y030121
X027030Y050310
X032912Y035659
X047476Y025722
X015550Y039612
X017337Y035477
X014276Y050667
X027319Y029903
T02
X031369Y050800
T03
X031369Y057531
X036830Y057658
T04
X052959Y034925
X052959Y040005
X058039Y040005
X058039Y034925
X058039Y029845
X036449Y035052
X036449Y040132
X041529Y040132
X041529Y035052
X041529Y029972
X050292Y055626
X055372Y055626
X055372Y050546
X050292Y050546
X045212Y050546
T05
X052959Y029845
X036449Y029972
X045212Y055626
M30
