G04 Layer: TopSolderMaskLayer*
G04 EasyEDA v6.5.46, 2025-07-23 17:18:39*
G04 4d1536246bbc4f27acf5b42e0466264c,7be8f16a26344db1bf46185b0a727cd7,10*
G04 Gerber Generator version 0.2*
G04 Scale: 100 percent, Rotated: No, Reflected: No *
G04 Dimensions in millimeters *
G04 leading zeros omitted , absolute positions ,4 integer and 5 decimal *
%FSLAX45Y45*%
%MOMM*%

%AMMACRO1*4,1,8,-0.1961,-0.8007,-0.2258,-0.7708,-0.2258,0.771,-0.1961,0.8007,0.1958,0.8007,0.2258,0.771,0.2258,-0.7708,0.1958,-0.8007,-0.1961,-0.8007,0*%
%AMMACRO2*4,1,8,-0.771,-1.3007,-0.8007,-1.2708,-0.8007,1.271,-0.771,1.3007,0.7708,1.3007,0.8007,1.271,0.8007,-1.2708,0.7708,-1.3007,-0.771,-1.3007,0*%
%AMMACRO3*4,1,8,-1.0211,-1.0508,-1.0508,-1.0208,-1.0508,1.0211,-1.0211,1.0508,1.0208,1.0508,1.0508,1.0211,1.0508,-1.0208,1.0208,-1.0508,-1.0211,-1.0508,0*%
%ADD10C,2.1016*%
%ADD11C,3.1016*%
%ADD12MACRO1*%
%ADD13MACRO2*%
%ADD14O,0.6755891999999999X2.4896064*%
%ADD15MACRO3*%

%LPD*%
D10*
G01*
X3136900Y5753100D03*
G01*
X3683000Y5765800D03*
D11*
G01*
X5295900Y2984500D03*
G01*
X5295900Y3492500D03*
G01*
X5295900Y4000500D03*
G01*
X5803900Y4000500D03*
G01*
X5803900Y3492500D03*
G01*
X5803900Y2984500D03*
G01*
X3644900Y2997200D03*
G01*
X3644900Y3505200D03*
G01*
X3644900Y4013200D03*
G01*
X4152900Y4013200D03*
G01*
X4152900Y3505200D03*
G01*
X4152900Y2997200D03*
G01*
X4521200Y5562600D03*
G01*
X5029200Y5562600D03*
G01*
X5537200Y5562600D03*
G01*
X5537200Y5054600D03*
G01*
X5029200Y5054600D03*
G01*
X4521200Y5054600D03*
D12*
G01*
X1542694Y5267896D03*
G01*
X1592706Y5267896D03*
G01*
X1642694Y5267896D03*
G01*
X1692706Y5267896D03*
G01*
X1742693Y5267896D03*
G01*
X1792706Y5267896D03*
G01*
X1842693Y5267896D03*
G01*
X1892706Y5267896D03*
G01*
X1942693Y5267896D03*
G01*
X1992706Y5267896D03*
G01*
X2042693Y5267896D03*
G01*
X2092706Y5267896D03*
G01*
X2142693Y5267896D03*
G01*
X2192705Y5267896D03*
G01*
X2242693Y5267896D03*
G01*
X2292705Y5267896D03*
D13*
G01*
X1372704Y5577890D03*
G01*
X2462695Y5577890D03*
D10*
G01*
X3136900Y5080000D03*
D14*
G01*
X2654300Y3763695D03*
G01*
X2527300Y3763695D03*
G01*
X2400300Y3763695D03*
G01*
X2273300Y3763695D03*
G01*
X2146300Y3763695D03*
G01*
X2019300Y3763695D03*
G01*
X1892300Y3763695D03*
G01*
X1765300Y3763695D03*
G01*
X1638300Y3763695D03*
G01*
X1511300Y3763695D03*
G01*
X1384300Y3763695D03*
G01*
X1257300Y3763695D03*
G01*
X2654300Y2814904D03*
G01*
X2527300Y2814904D03*
G01*
X2400300Y2814904D03*
G01*
X2273300Y2814904D03*
G01*
X2146300Y2814904D03*
G01*
X2019300Y2814904D03*
G01*
X1892300Y2814904D03*
G01*
X1765300Y2814904D03*
G01*
X1638300Y2814904D03*
G01*
X1511300Y2814904D03*
G01*
X1384300Y2814904D03*
G01*
X1257300Y2814904D03*
D15*
G01*
X1219200Y5600700D03*
G01*
X2603500Y5588000D03*
M02*
