G04 Layer: BottomLayer*
G04 EasyEDA v6.5.46, 2025-07-23 17:18:39*
G04 4d1536246bbc4f27acf5b42e0466264c,7be8f16a26344db1bf46185b0a727cd7,10*
G04 Gerber Generator version 0.2*
G04 Scale: 100 percent, Rotated: No, Reflected: No *
G04 Dimensions in millimeters *
G04 leading zeros omitted , absolute positions ,4 integer and 5 decimal *
%FSLAX45Y45*%
%MOMM*%

%ADD10C,0.2540*%
%ADD11C,2.0000*%
%ADD12C,3.0000*%
%ADD13C,0.6100*%

%LPD*%
G36*
X736092Y2325878D02*
G01*
X732180Y2326690D01*
X728878Y2328875D01*
X726694Y2332177D01*
X725932Y2336038D01*
X725932Y6063894D01*
X726694Y6067806D01*
X728878Y6071108D01*
X732180Y6073292D01*
X736092Y6074054D01*
X6363919Y6074054D01*
X6367830Y6073292D01*
X6371082Y6071108D01*
X6373317Y6067806D01*
X6374079Y6063894D01*
X6374079Y2336038D01*
X6373317Y2332177D01*
X6371082Y2328875D01*
X6367830Y2326690D01*
X6363919Y2325878D01*
X4671212Y2325878D01*
X4667300Y2326690D01*
X4663998Y2328875D01*
X4661814Y2332177D01*
X4661052Y2336038D01*
X4661814Y2339949D01*
X4663998Y2343251D01*
X5096560Y2775813D01*
X5101691Y2782011D01*
X5105247Y2788716D01*
X5107432Y2795930D01*
X5108244Y2803956D01*
X5108244Y2929229D01*
X5109006Y2933192D01*
X5111292Y2936544D01*
X5114747Y2938729D01*
X5118709Y2939389D01*
X5122672Y2938475D01*
X5125923Y2936036D01*
X5127955Y2932582D01*
X5132984Y2918256D01*
X5140655Y2901848D01*
X5149951Y2886303D01*
X5160822Y2871825D01*
X5173116Y2858516D01*
X5186730Y2846578D01*
X5201513Y2836062D01*
X5217261Y2827172D01*
X5233873Y2819908D01*
X5251094Y2814421D01*
X5268823Y2810713D01*
X5286857Y2808833D01*
X5304942Y2808833D01*
X5322976Y2810713D01*
X5340705Y2814421D01*
X5357926Y2819908D01*
X5374538Y2827172D01*
X5390286Y2836062D01*
X5405069Y2846578D01*
X5418683Y2858516D01*
X5430977Y2871825D01*
X5441848Y2886303D01*
X5451144Y2901848D01*
X5458815Y2918256D01*
X5464810Y2935325D01*
X5468924Y2952953D01*
X5471261Y2970936D01*
X5471718Y2989021D01*
X5470347Y3007106D01*
X5467096Y3024886D01*
X5462016Y3042310D01*
X5455208Y3059074D01*
X5446674Y3075025D01*
X5436565Y3090062D01*
X5424982Y3103981D01*
X5412028Y3116630D01*
X5397804Y3127857D01*
X5382514Y3137560D01*
X5366359Y3145688D01*
X5349392Y3152038D01*
X5331866Y3156661D01*
X5313984Y3159455D01*
X5295900Y3160369D01*
X5277815Y3159455D01*
X5259933Y3156661D01*
X5242407Y3152038D01*
X5225440Y3145688D01*
X5209286Y3137560D01*
X5193995Y3127857D01*
X5179771Y3116630D01*
X5166817Y3103981D01*
X5155234Y3090062D01*
X5145125Y3075025D01*
X5136591Y3059074D01*
X5129784Y3042310D01*
X5128158Y3036671D01*
X5126228Y3033014D01*
X5122976Y3030474D01*
X5119014Y3029356D01*
X5114950Y3029966D01*
X5111445Y3032099D01*
X5109057Y3035503D01*
X5108244Y3039516D01*
X5108244Y3246018D01*
X5109006Y3249879D01*
X5111191Y3253181D01*
X5196433Y3338423D01*
X5200091Y3340760D01*
X5204409Y3341370D01*
X5208574Y3340049D01*
X5217261Y3335172D01*
X5233873Y3327908D01*
X5251094Y3322421D01*
X5268823Y3318713D01*
X5286857Y3316833D01*
X5304942Y3316833D01*
X5322976Y3318713D01*
X5340705Y3322421D01*
X5357926Y3327908D01*
X5374538Y3335172D01*
X5390286Y3344062D01*
X5405069Y3354578D01*
X5418683Y3366515D01*
X5430977Y3379825D01*
X5441848Y3394303D01*
X5451144Y3409848D01*
X5458815Y3426256D01*
X5464810Y3443325D01*
X5468924Y3460953D01*
X5471261Y3478936D01*
X5471718Y3497021D01*
X5470347Y3515106D01*
X5467096Y3532886D01*
X5462016Y3550310D01*
X5455208Y3567074D01*
X5446674Y3583025D01*
X5436565Y3598062D01*
X5424982Y3611981D01*
X5412028Y3624630D01*
X5397804Y3635857D01*
X5382514Y3645560D01*
X5366359Y3653688D01*
X5349392Y3660038D01*
X5331866Y3664661D01*
X5313984Y3667455D01*
X5295900Y3668369D01*
X5277815Y3667455D01*
X5259933Y3664661D01*
X5242407Y3660038D01*
X5225440Y3653688D01*
X5209286Y3645560D01*
X5193995Y3635857D01*
X5179771Y3624630D01*
X5166817Y3611981D01*
X5155234Y3598062D01*
X5145125Y3583025D01*
X5136591Y3567074D01*
X5129784Y3550310D01*
X5124704Y3532886D01*
X5121452Y3515106D01*
X5120081Y3497021D01*
X5120538Y3478936D01*
X5122875Y3460953D01*
X5126990Y3443325D01*
X5132984Y3426256D01*
X5140655Y3409848D01*
X5143296Y3405378D01*
X5144719Y3401161D01*
X5144160Y3396742D01*
X5141772Y3392982D01*
X5042662Y3293872D01*
X5037531Y3287623D01*
X5033975Y3280968D01*
X5031790Y3273755D01*
X5031028Y3265728D01*
X5031028Y2823667D01*
X5030216Y2819755D01*
X5028031Y2816453D01*
X4811369Y2599791D01*
X4807661Y2597454D01*
X4803292Y2596845D01*
X4799076Y2598166D01*
X4795875Y2601163D01*
X4790795Y2608427D01*
X4789170Y2610002D01*
X4786985Y2613304D01*
X4786223Y2617216D01*
X4786223Y4496663D01*
X4786985Y4500524D01*
X4789170Y4503826D01*
X5344210Y5058867D01*
X5347512Y5061051D01*
X5351373Y5061813D01*
X5355285Y5061051D01*
X5358587Y5058867D01*
X5360771Y5055565D01*
X5361533Y5051653D01*
X5361533Y5045557D01*
X5363413Y5027523D01*
X5367121Y5009794D01*
X5372608Y4992573D01*
X5379872Y4975961D01*
X5388762Y4960213D01*
X5399278Y4945430D01*
X5411216Y4931816D01*
X5424525Y4919522D01*
X5439003Y4908651D01*
X5454548Y4899355D01*
X5470956Y4891684D01*
X5488025Y4885690D01*
X5505653Y4881575D01*
X5523636Y4879238D01*
X5541721Y4878781D01*
X5559806Y4880152D01*
X5577586Y4883404D01*
X5595010Y4888484D01*
X5611774Y4895291D01*
X5627725Y4903825D01*
X5642762Y4913934D01*
X5656681Y4925517D01*
X5669330Y4938471D01*
X5680557Y4952695D01*
X5690260Y4967986D01*
X5698388Y4984140D01*
X5704738Y5001107D01*
X5709361Y5018633D01*
X5712155Y5036515D01*
X5713069Y5054600D01*
X5712155Y5072684D01*
X5709361Y5090566D01*
X5704738Y5108092D01*
X5698388Y5125059D01*
X5690260Y5141214D01*
X5680557Y5156504D01*
X5669330Y5170728D01*
X5656681Y5183682D01*
X5642762Y5195265D01*
X5627725Y5205374D01*
X5611774Y5213908D01*
X5595010Y5220716D01*
X5577586Y5225796D01*
X5559806Y5229047D01*
X5541721Y5230418D01*
X5536590Y5231079D01*
X5533186Y5233263D01*
X5530951Y5236565D01*
X5530088Y5240477D01*
X5530850Y5244388D01*
X5533085Y5247741D01*
X5564174Y5278831D01*
X5569254Y5285028D01*
X5572810Y5291734D01*
X5575046Y5298948D01*
X5575808Y5306974D01*
X5575808Y5383276D01*
X5576722Y5387492D01*
X5579313Y5390946D01*
X5583123Y5393029D01*
X5595010Y5396484D01*
X5611774Y5403291D01*
X5627725Y5411825D01*
X5642762Y5421934D01*
X5656681Y5433517D01*
X5669330Y5446471D01*
X5680557Y5460695D01*
X5690260Y5475986D01*
X5698388Y5492140D01*
X5704738Y5509107D01*
X5709361Y5526633D01*
X5712155Y5544515D01*
X5713069Y5562600D01*
X5712155Y5580684D01*
X5709361Y5598566D01*
X5704738Y5616092D01*
X5698388Y5633059D01*
X5690260Y5649214D01*
X5680557Y5664504D01*
X5669330Y5678728D01*
X5656681Y5691682D01*
X5642762Y5703265D01*
X5627725Y5713374D01*
X5611774Y5721908D01*
X5595010Y5728716D01*
X5577586Y5733796D01*
X5559806Y5737047D01*
X5541721Y5738418D01*
X5523636Y5737961D01*
X5505653Y5735624D01*
X5488025Y5731510D01*
X5470956Y5725515D01*
X5454548Y5717844D01*
X5439003Y5708548D01*
X5424525Y5697677D01*
X5411216Y5685383D01*
X5399278Y5671769D01*
X5388762Y5656986D01*
X5379872Y5641238D01*
X5372608Y5624626D01*
X5367121Y5607405D01*
X5363413Y5589676D01*
X5361533Y5571642D01*
X5361533Y5553557D01*
X5363413Y5535523D01*
X5367121Y5517794D01*
X5372608Y5500573D01*
X5379872Y5483961D01*
X5388762Y5468213D01*
X5399278Y5453430D01*
X5411216Y5439816D01*
X5424525Y5427522D01*
X5439003Y5416651D01*
X5454548Y5407355D01*
X5470956Y5399684D01*
X5488025Y5393690D01*
X5490768Y5393080D01*
X5494832Y5391099D01*
X5497576Y5387594D01*
X5498592Y5383174D01*
X5498592Y5326684D01*
X5497830Y5322773D01*
X5495594Y5319471D01*
X5222392Y5046268D01*
X5219039Y5044033D01*
X5215026Y5043271D01*
X5211064Y5044135D01*
X5207762Y5046522D01*
X5205679Y5049977D01*
X5205069Y5054600D01*
X5204155Y5072684D01*
X5201361Y5090566D01*
X5196738Y5108092D01*
X5190388Y5125059D01*
X5182260Y5141214D01*
X5172557Y5156504D01*
X5161330Y5170728D01*
X5148681Y5183682D01*
X5134762Y5195265D01*
X5119725Y5205374D01*
X5103774Y5213908D01*
X5087010Y5220716D01*
X5069586Y5225796D01*
X5051806Y5229047D01*
X5033721Y5230418D01*
X5015636Y5229961D01*
X4997653Y5227624D01*
X4980025Y5223510D01*
X4962956Y5217515D01*
X4946548Y5209844D01*
X4931003Y5200548D01*
X4916525Y5189677D01*
X4903216Y5177383D01*
X4891278Y5163769D01*
X4880762Y5148986D01*
X4871872Y5133238D01*
X4864608Y5116626D01*
X4859121Y5099405D01*
X4855413Y5081676D01*
X4853533Y5063642D01*
X4853533Y5045557D01*
X4855413Y5027523D01*
X4859121Y5009794D01*
X4864608Y4992573D01*
X4871872Y4975961D01*
X4880762Y4960213D01*
X4891278Y4945430D01*
X4903216Y4931816D01*
X4916525Y4919522D01*
X4931003Y4908651D01*
X4946548Y4899355D01*
X4962956Y4891684D01*
X4980025Y4885690D01*
X4997653Y4881575D01*
X5015636Y4879238D01*
X5030724Y4878832D01*
X5034534Y4877968D01*
X5037734Y4875733D01*
X5039868Y4872431D01*
X5040630Y4868621D01*
X5039817Y4864760D01*
X5037632Y4861509D01*
X4755235Y4579112D01*
X4751984Y4576927D01*
X4748072Y4576165D01*
X4744212Y4576927D01*
X4740910Y4579112D01*
X4738674Y4582414D01*
X4737912Y4586325D01*
X4737912Y5383987D01*
X4737150Y5392013D01*
X4734915Y5399227D01*
X4731359Y5405932D01*
X4726279Y5412130D01*
X4675428Y5462981D01*
X4673447Y5465775D01*
X4672533Y5469026D01*
X4672736Y5472430D01*
X4674260Y5475986D01*
X4682388Y5492140D01*
X4688738Y5509107D01*
X4693361Y5526633D01*
X4696155Y5544515D01*
X4697069Y5562600D01*
X4696155Y5580684D01*
X4693361Y5598566D01*
X4688738Y5616092D01*
X4682388Y5633059D01*
X4674260Y5649214D01*
X4664557Y5664504D01*
X4653330Y5678728D01*
X4640681Y5691682D01*
X4626762Y5703265D01*
X4611725Y5713374D01*
X4595774Y5721908D01*
X4579010Y5728716D01*
X4561586Y5733796D01*
X4543806Y5737047D01*
X4525721Y5738418D01*
X4507636Y5737961D01*
X4489653Y5735624D01*
X4472025Y5731510D01*
X4454956Y5725515D01*
X4438548Y5717844D01*
X4423003Y5708548D01*
X4408525Y5697677D01*
X4395216Y5685383D01*
X4383278Y5671769D01*
X4372762Y5656986D01*
X4363872Y5641238D01*
X4356608Y5624626D01*
X4351121Y5607405D01*
X4347413Y5589676D01*
X4345533Y5571642D01*
X4345533Y5553557D01*
X4347413Y5535523D01*
X4351121Y5517794D01*
X4356608Y5500573D01*
X4363872Y5483961D01*
X4372762Y5468213D01*
X4383278Y5453430D01*
X4395216Y5439816D01*
X4408525Y5427522D01*
X4423003Y5416651D01*
X4438548Y5407355D01*
X4454956Y5399684D01*
X4472025Y5393690D01*
X4489653Y5389575D01*
X4507636Y5387238D01*
X4525721Y5386781D01*
X4543806Y5388152D01*
X4561586Y5391404D01*
X4579010Y5396484D01*
X4595774Y5403291D01*
X4608779Y5410250D01*
X4612894Y5411419D01*
X4617161Y5410758D01*
X4620768Y5408422D01*
X4657699Y5371490D01*
X4659934Y5368188D01*
X4660696Y5364276D01*
X4660696Y5188102D01*
X4659934Y5184241D01*
X4657699Y5180888D01*
X4654346Y5178704D01*
X4650435Y5177942D01*
X4646574Y5178806D01*
X4643272Y5181041D01*
X4640681Y5183682D01*
X4626762Y5195265D01*
X4611725Y5205374D01*
X4595774Y5213908D01*
X4579010Y5220716D01*
X4561586Y5225796D01*
X4543806Y5229047D01*
X4525721Y5230418D01*
X4507636Y5229961D01*
X4489653Y5227624D01*
X4472025Y5223510D01*
X4454956Y5217515D01*
X4438548Y5209844D01*
X4423003Y5200548D01*
X4408525Y5189677D01*
X4395216Y5177383D01*
X4383278Y5163769D01*
X4372762Y5148986D01*
X4363872Y5133238D01*
X4356608Y5116626D01*
X4351121Y5099405D01*
X4347413Y5081676D01*
X4345533Y5063642D01*
X4345533Y5045557D01*
X4347413Y5027523D01*
X4351121Y5009794D01*
X4356608Y4992573D01*
X4363872Y4975961D01*
X4372762Y4960213D01*
X4383278Y4945430D01*
X4395216Y4931816D01*
X4408525Y4919522D01*
X4423003Y4908651D01*
X4438548Y4899355D01*
X4454956Y4891684D01*
X4472025Y4885690D01*
X4474768Y4885080D01*
X4478832Y4883099D01*
X4481576Y4879594D01*
X4482592Y4875174D01*
X4482592Y3641801D01*
X4481830Y3637889D01*
X4479594Y3634587D01*
X4346041Y3501034D01*
X4342688Y3498799D01*
X4338777Y3498037D01*
X4334865Y3498850D01*
X4331563Y3501136D01*
X4329379Y3504539D01*
X4328718Y3509721D01*
X4327347Y3527806D01*
X4324096Y3545586D01*
X4319016Y3563010D01*
X4312208Y3579774D01*
X4303674Y3595725D01*
X4293565Y3610762D01*
X4281982Y3624681D01*
X4269028Y3637330D01*
X4254804Y3648557D01*
X4239514Y3658260D01*
X4223359Y3666388D01*
X4206392Y3672738D01*
X4188866Y3677361D01*
X4170984Y3680155D01*
X4152900Y3681069D01*
X4134815Y3680155D01*
X4116933Y3677361D01*
X4099407Y3672738D01*
X4082440Y3666388D01*
X4065879Y3658057D01*
X4062729Y3656736D01*
X4059326Y3656533D01*
X4056075Y3657447D01*
X4053281Y3659428D01*
X3984447Y3728262D01*
X3982262Y3731564D01*
X3981500Y3735425D01*
X3981500Y3920794D01*
X3982415Y3925062D01*
X3985056Y3928567D01*
X3988917Y3930599D01*
X3993286Y3930802D01*
X3997350Y3929176D01*
X4000347Y3926027D01*
X4006951Y3915003D01*
X4017822Y3900525D01*
X4030116Y3887215D01*
X4043730Y3875278D01*
X4058513Y3864762D01*
X4071569Y3857396D01*
X4071569Y3931869D01*
X3991660Y3931869D01*
X3987749Y3932631D01*
X3984447Y3934815D01*
X3982262Y3938117D01*
X3981500Y3942029D01*
X3981500Y4084370D01*
X3982262Y4088282D01*
X3984447Y4091584D01*
X3987749Y4093768D01*
X3991660Y4094530D01*
X4071569Y4094530D01*
X4071569Y4168901D01*
X4066286Y4166260D01*
X4050995Y4156557D01*
X4036771Y4145330D01*
X4023817Y4132681D01*
X4012234Y4118762D01*
X4002125Y4103725D01*
X4000601Y4100931D01*
X3997706Y4097578D01*
X3993642Y4095750D01*
X3989171Y4095851D01*
X3985209Y4097832D01*
X3982465Y4101388D01*
X3981500Y4105706D01*
X3981500Y4991658D01*
X3980687Y4999685D01*
X3978503Y5006898D01*
X3974947Y5013604D01*
X3969816Y5019802D01*
X3609340Y5380278D01*
X3607308Y5383174D01*
X3606393Y5386578D01*
X3605682Y5394655D01*
X3603142Y5404154D01*
X3599027Y5413044D01*
X3593388Y5421071D01*
X3586429Y5428030D01*
X3578351Y5433669D01*
X3569462Y5437835D01*
X3559962Y5440375D01*
X3550208Y5441238D01*
X3540404Y5440375D01*
X3530904Y5437835D01*
X3522014Y5433669D01*
X3513937Y5428030D01*
X3507028Y5421071D01*
X3501390Y5413044D01*
X3497224Y5404154D01*
X3494684Y5394655D01*
X3493820Y5384850D01*
X3494684Y5375046D01*
X3497224Y5365546D01*
X3501390Y5356656D01*
X3507028Y5348630D01*
X3513937Y5341670D01*
X3522014Y5336032D01*
X3530904Y5331866D01*
X3540404Y5329326D01*
X3548430Y5328615D01*
X3551834Y5327700D01*
X3554729Y5325719D01*
X3901287Y4979162D01*
X3903472Y4975860D01*
X3904284Y4971948D01*
X3904284Y4088790D01*
X3903472Y4084929D01*
X3901287Y4081627D01*
X3897985Y4079392D01*
X3894124Y4078630D01*
X3890213Y4079392D01*
X3886911Y4081627D01*
X3270453Y4698085D01*
X3264204Y4703216D01*
X3257550Y4706772D01*
X3250336Y4708956D01*
X3242310Y4709718D01*
X2488133Y4709718D01*
X2484221Y4710531D01*
X2480919Y4712716D01*
X2479344Y4714341D01*
X2471267Y4719929D01*
X2467610Y4721656D01*
X2464511Y4723942D01*
X2462428Y4727244D01*
X2461768Y4731054D01*
X2462580Y4734814D01*
X2464765Y4738065D01*
X2698496Y4971796D01*
X2701391Y4973828D01*
X2704795Y4974742D01*
X2712821Y4975453D01*
X2722321Y4977993D01*
X2731211Y4982159D01*
X2739288Y4987747D01*
X2746248Y4994706D01*
X2751886Y5002784D01*
X2756001Y5011674D01*
X2758541Y5021173D01*
X2759405Y5030927D01*
X2758541Y5040731D01*
X2756001Y5050231D01*
X2751886Y5059121D01*
X2746248Y5067198D01*
X2739288Y5074158D01*
X2736697Y5075936D01*
X2733700Y5079187D01*
X2732379Y5083403D01*
X2732938Y5087772D01*
X2735326Y5091480D01*
X3496157Y5852312D01*
X3499459Y5854496D01*
X3503371Y5855258D01*
X3572611Y5855258D01*
X3576980Y5854293D01*
X3580536Y5851499D01*
X3582517Y5847435D01*
X3582517Y5842914D01*
X3580587Y5838850D01*
X3579418Y5837326D01*
X3571544Y5824321D01*
X3570579Y5822137D01*
X3626662Y5822137D01*
X3626662Y5845098D01*
X3627424Y5849010D01*
X3629609Y5852312D01*
X3632911Y5854496D01*
X3636822Y5855258D01*
X3729177Y5855258D01*
X3733088Y5854496D01*
X3736390Y5852312D01*
X3738575Y5849010D01*
X3739337Y5845098D01*
X3739337Y5822137D01*
X3795420Y5822137D01*
X3794455Y5824321D01*
X3786581Y5837326D01*
X3785412Y5838850D01*
X3783482Y5842914D01*
X3783482Y5847435D01*
X3785463Y5851499D01*
X3789019Y5854293D01*
X3793388Y5855258D01*
X4677714Y5855258D01*
X4681575Y5854496D01*
X4684877Y5852312D01*
X4875123Y5662117D01*
X4877460Y5658408D01*
X4878070Y5654090D01*
X4876749Y5649925D01*
X4871872Y5641238D01*
X4864608Y5624626D01*
X4859121Y5607405D01*
X4855413Y5589676D01*
X4853533Y5571642D01*
X4853533Y5553557D01*
X4855413Y5535523D01*
X4859121Y5517794D01*
X4864608Y5500573D01*
X4871872Y5483961D01*
X4880762Y5468213D01*
X4891278Y5453430D01*
X4903216Y5439816D01*
X4916525Y5427522D01*
X4931003Y5416651D01*
X4946548Y5407355D01*
X4962956Y5399684D01*
X4980025Y5393690D01*
X4997653Y5389575D01*
X5015636Y5387238D01*
X5033721Y5386781D01*
X5051806Y5388152D01*
X5069586Y5391404D01*
X5087010Y5396484D01*
X5103774Y5403291D01*
X5119725Y5411825D01*
X5134762Y5421934D01*
X5148681Y5433517D01*
X5161330Y5446471D01*
X5172557Y5460695D01*
X5182260Y5475986D01*
X5190388Y5492140D01*
X5196738Y5509107D01*
X5201361Y5526633D01*
X5204155Y5544515D01*
X5205069Y5562600D01*
X5204155Y5580684D01*
X5201361Y5598566D01*
X5196738Y5616092D01*
X5190388Y5633059D01*
X5182260Y5649214D01*
X5172557Y5664504D01*
X5161330Y5678728D01*
X5148681Y5691682D01*
X5134762Y5703265D01*
X5119725Y5713374D01*
X5103774Y5721908D01*
X5087010Y5728716D01*
X5069586Y5733796D01*
X5051806Y5737047D01*
X5033721Y5738418D01*
X5015636Y5737961D01*
X4997653Y5735624D01*
X4980025Y5731510D01*
X4962956Y5725515D01*
X4946548Y5717844D01*
X4942078Y5715203D01*
X4937861Y5713780D01*
X4933442Y5714339D01*
X4929682Y5716727D01*
X4725568Y5920841D01*
X4719320Y5925972D01*
X4712665Y5929528D01*
X4705451Y5931712D01*
X4697425Y5932474D01*
X3483660Y5932474D01*
X3475634Y5931712D01*
X3468420Y5929528D01*
X3461715Y5925972D01*
X3455517Y5920841D01*
X3280105Y5745480D01*
X3276904Y5743295D01*
X3273145Y5742482D01*
X3269335Y5743143D01*
X3266033Y5745175D01*
X3263747Y5748324D01*
X3262782Y5752084D01*
X3261867Y5768289D01*
X3259124Y5783224D01*
X3254603Y5797753D01*
X3248355Y5811621D01*
X3240481Y5824626D01*
X3231134Y5836564D01*
X3220364Y5847334D01*
X3208426Y5856681D01*
X3195421Y5864555D01*
X3181553Y5870803D01*
X3167024Y5875324D01*
X3152089Y5878068D01*
X3136900Y5878982D01*
X3121710Y5878068D01*
X3106775Y5875324D01*
X3092246Y5870803D01*
X3078378Y5864555D01*
X3065373Y5856681D01*
X3053435Y5847334D01*
X3042666Y5836564D01*
X3033318Y5824626D01*
X3025444Y5811621D01*
X3019196Y5797753D01*
X3014675Y5783224D01*
X3011932Y5768289D01*
X3011017Y5753100D01*
X3011932Y5737910D01*
X3014675Y5722975D01*
X3019196Y5708446D01*
X3022041Y5702096D01*
X3022955Y5698134D01*
X3022193Y5694172D01*
X3019958Y5690768D01*
X2479852Y5150662D01*
X2476550Y5148427D01*
X2472639Y5147665D01*
X2465933Y5147665D01*
X2462022Y5148427D01*
X2458720Y5150662D01*
X2457145Y5152237D01*
X2449068Y5157876D01*
X2440178Y5162042D01*
X2430678Y5164582D01*
X2420924Y5165445D01*
X2411120Y5164582D01*
X2401620Y5162042D01*
X2392730Y5157876D01*
X2384653Y5152237D01*
X2377744Y5145278D01*
X2372106Y5137251D01*
X2367940Y5128361D01*
X2365400Y5118862D01*
X2364536Y5109057D01*
X2365400Y5099253D01*
X2367940Y5089753D01*
X2372106Y5080863D01*
X2377744Y5072837D01*
X2384653Y5065877D01*
X2392730Y5060238D01*
X2401620Y5056073D01*
X2411120Y5053533D01*
X2420924Y5052669D01*
X2430678Y5053533D01*
X2440178Y5056073D01*
X2449068Y5060238D01*
X2457145Y5065877D01*
X2458720Y5067452D01*
X2462022Y5069687D01*
X2465933Y5070449D01*
X2492349Y5070449D01*
X2500376Y5071262D01*
X2507640Y5073446D01*
X2514295Y5077002D01*
X2520492Y5082133D01*
X3074568Y5636158D01*
X3077972Y5638393D01*
X3081934Y5639155D01*
X3085896Y5638241D01*
X3092246Y5635396D01*
X3106775Y5630875D01*
X3121710Y5628132D01*
X3137916Y5627217D01*
X3141675Y5626252D01*
X3144824Y5623966D01*
X3146856Y5620664D01*
X3147517Y5616854D01*
X3146704Y5613095D01*
X3144520Y5609894D01*
X1554581Y4019905D01*
X1551686Y4017873D01*
X1548282Y4016959D01*
X1545234Y4016705D01*
X1535785Y4014165D01*
X1526844Y4009999D01*
X1518818Y4004360D01*
X1511858Y3997401D01*
X1506220Y3989374D01*
X1502054Y3980484D01*
X1499514Y3970985D01*
X1498650Y3961180D01*
X1499514Y3951376D01*
X1501444Y3944264D01*
X1501648Y3939895D01*
X1499920Y3935831D01*
X1496720Y3932834D01*
X1492504Y3931513D01*
X1488135Y3932123D01*
X1484426Y3934460D01*
X1469186Y3949700D01*
X1467002Y3953001D01*
X1466240Y3956913D01*
X1466240Y5021681D01*
X1467002Y5025593D01*
X1469186Y5028895D01*
X1470812Y5030470D01*
X1476451Y5038547D01*
X1480566Y5047437D01*
X1483106Y5056936D01*
X1483969Y5066690D01*
X1483106Y5076494D01*
X1480566Y5085994D01*
X1476451Y5094884D01*
X1470812Y5102961D01*
X1463852Y5109921D01*
X1455775Y5115509D01*
X1446885Y5119674D01*
X1437386Y5122214D01*
X1427632Y5123078D01*
X1417828Y5122214D01*
X1408328Y5119674D01*
X1399438Y5115509D01*
X1391361Y5109921D01*
X1384452Y5102961D01*
X1378813Y5094884D01*
X1374648Y5085994D01*
X1372108Y5076494D01*
X1371244Y5066690D01*
X1372108Y5056936D01*
X1374648Y5047437D01*
X1378813Y5038547D01*
X1384452Y5030470D01*
X1386027Y5028895D01*
X1388211Y5025593D01*
X1389024Y5021681D01*
X1389024Y3937203D01*
X1389786Y3929176D01*
X1391970Y3921963D01*
X1395526Y3915257D01*
X1400657Y3909060D01*
X1701444Y3608273D01*
X1703832Y3604564D01*
X1704390Y3600196D01*
X1703070Y3595979D01*
X1700072Y3592728D01*
X1697482Y3590950D01*
X1690573Y3583990D01*
X1684934Y3575913D01*
X1680768Y3567023D01*
X1678228Y3557524D01*
X1677365Y3547719D01*
X1678228Y3537965D01*
X1680768Y3528466D01*
X1684934Y3519576D01*
X1690573Y3511499D01*
X1693570Y3508501D01*
X1695094Y3506520D01*
X1696110Y3504285D01*
X1698091Y3497630D01*
X1701647Y3490976D01*
X1706778Y3484727D01*
X2848254Y2343251D01*
X2850489Y2339949D01*
X2851251Y2336038D01*
X2850489Y2332177D01*
X2848254Y2328875D01*
X2844952Y2326690D01*
X2841091Y2325878D01*
G37*

%LPC*%
G36*
X6184900Y2361692D02*
G01*
X6200292Y2362657D01*
X6215430Y2365400D01*
X6230112Y2369972D01*
X6244132Y2376322D01*
X6257340Y2384298D01*
X6269431Y2393797D01*
X6280302Y2404668D01*
X6289802Y2416759D01*
X6297777Y2429967D01*
X6304127Y2443988D01*
X6308699Y2458669D01*
X6311442Y2473807D01*
X6312408Y2489200D01*
X6311442Y2504592D01*
X6308699Y2519730D01*
X6304127Y2534412D01*
X6297777Y2548432D01*
X6289802Y2561640D01*
X6280302Y2573731D01*
X6269431Y2584602D01*
X6257340Y2594102D01*
X6244132Y2602077D01*
X6230112Y2608427D01*
X6215430Y2612999D01*
X6200292Y2615742D01*
X6184900Y2616708D01*
X6169507Y2615742D01*
X6154369Y2612999D01*
X6139688Y2608427D01*
X6125667Y2602077D01*
X6112459Y2594102D01*
X6100368Y2584602D01*
X6089497Y2573731D01*
X6079998Y2561640D01*
X6072022Y2548432D01*
X6065672Y2534412D01*
X6061100Y2519730D01*
X6058357Y2504592D01*
X6057392Y2489200D01*
X6058357Y2473807D01*
X6061100Y2458669D01*
X6065672Y2443988D01*
X6072022Y2429967D01*
X6079998Y2416759D01*
X6089497Y2404668D01*
X6100368Y2393797D01*
X6112459Y2384298D01*
X6125667Y2376322D01*
X6139688Y2369972D01*
X6154369Y2365400D01*
X6169507Y2362657D01*
G37*
G36*
X914400Y2387092D02*
G01*
X929792Y2388057D01*
X944930Y2390800D01*
X959612Y2395372D01*
X973632Y2401722D01*
X986840Y2409698D01*
X998931Y2419197D01*
X1009802Y2430068D01*
X1019302Y2442159D01*
X1027277Y2455367D01*
X1033627Y2469388D01*
X1038199Y2484069D01*
X1040942Y2499207D01*
X1041908Y2514600D01*
X1040942Y2529992D01*
X1038199Y2545130D01*
X1033627Y2559812D01*
X1027277Y2573832D01*
X1019302Y2587040D01*
X1009802Y2599131D01*
X998931Y2610002D01*
X986840Y2619502D01*
X973632Y2627477D01*
X959612Y2633827D01*
X944930Y2638399D01*
X929792Y2641142D01*
X914400Y2642108D01*
X899007Y2641142D01*
X883869Y2638399D01*
X869187Y2633827D01*
X855167Y2627477D01*
X841959Y2619502D01*
X829868Y2610002D01*
X818997Y2599131D01*
X809498Y2587040D01*
X801522Y2573832D01*
X795172Y2559812D01*
X790600Y2545130D01*
X787857Y2529992D01*
X786892Y2514600D01*
X787857Y2499207D01*
X790600Y2484069D01*
X795172Y2469388D01*
X801522Y2455367D01*
X809498Y2442159D01*
X818997Y2430068D01*
X829868Y2419197D01*
X841959Y2409698D01*
X855167Y2401722D01*
X869187Y2395372D01*
X883869Y2390800D01*
X899007Y2388057D01*
G37*
G36*
X5794857Y2808833D02*
G01*
X5812942Y2808833D01*
X5830976Y2810713D01*
X5848705Y2814421D01*
X5865926Y2819908D01*
X5882538Y2827172D01*
X5898286Y2836062D01*
X5913069Y2846578D01*
X5926683Y2858516D01*
X5938977Y2871825D01*
X5949848Y2886303D01*
X5959144Y2901848D01*
X5966815Y2918256D01*
X5972810Y2935325D01*
X5976924Y2952953D01*
X5979261Y2970936D01*
X5979718Y2989021D01*
X5978347Y3007106D01*
X5975096Y3024886D01*
X5970016Y3042310D01*
X5963208Y3059074D01*
X5954674Y3075025D01*
X5944565Y3090062D01*
X5932982Y3103981D01*
X5920028Y3116630D01*
X5905804Y3127857D01*
X5890514Y3137560D01*
X5874359Y3145688D01*
X5857392Y3152038D01*
X5839866Y3156661D01*
X5821984Y3159455D01*
X5803900Y3160369D01*
X5785815Y3159455D01*
X5767933Y3156661D01*
X5750407Y3152038D01*
X5733440Y3145688D01*
X5717286Y3137560D01*
X5701995Y3127857D01*
X5687771Y3116630D01*
X5674817Y3103981D01*
X5663234Y3090062D01*
X5653125Y3075025D01*
X5644591Y3059074D01*
X5637784Y3042310D01*
X5632704Y3024886D01*
X5629452Y3007106D01*
X5628081Y2989021D01*
X5628538Y2970936D01*
X5630875Y2952953D01*
X5634990Y2935325D01*
X5640984Y2918256D01*
X5648655Y2901848D01*
X5657951Y2886303D01*
X5668822Y2871825D01*
X5681116Y2858516D01*
X5694730Y2846578D01*
X5709513Y2836062D01*
X5725261Y2827172D01*
X5741873Y2819908D01*
X5759094Y2814421D01*
X5776823Y2810713D01*
G37*
G36*
X5794857Y3316833D02*
G01*
X5812942Y3316833D01*
X5830976Y3318713D01*
X5848705Y3322421D01*
X5865926Y3327908D01*
X5882538Y3335172D01*
X5898286Y3344062D01*
X5913069Y3354578D01*
X5926683Y3366515D01*
X5938977Y3379825D01*
X5949848Y3394303D01*
X5959144Y3409848D01*
X5966815Y3426256D01*
X5972810Y3443325D01*
X5976924Y3460953D01*
X5979261Y3478936D01*
X5979718Y3497021D01*
X5978347Y3515106D01*
X5975096Y3532886D01*
X5970016Y3550310D01*
X5963208Y3567074D01*
X5954674Y3583025D01*
X5944565Y3598062D01*
X5932982Y3611981D01*
X5920028Y3624630D01*
X5905804Y3635857D01*
X5890514Y3645560D01*
X5874359Y3653688D01*
X5857392Y3660038D01*
X5839866Y3664661D01*
X5821984Y3667455D01*
X5803900Y3668369D01*
X5785815Y3667455D01*
X5767933Y3664661D01*
X5750407Y3660038D01*
X5733440Y3653688D01*
X5717286Y3645560D01*
X5701995Y3635857D01*
X5687771Y3624630D01*
X5674817Y3611981D01*
X5663234Y3598062D01*
X5653125Y3583025D01*
X5644591Y3567074D01*
X5637784Y3550310D01*
X5632704Y3532886D01*
X5629452Y3515106D01*
X5628081Y3497021D01*
X5628538Y3478936D01*
X5630875Y3460953D01*
X5634990Y3443325D01*
X5640984Y3426256D01*
X5648655Y3409848D01*
X5657951Y3394303D01*
X5668822Y3379825D01*
X5681116Y3366515D01*
X5694730Y3354578D01*
X5709513Y3344062D01*
X5725261Y3335172D01*
X5741873Y3327908D01*
X5759094Y3322421D01*
X5776823Y3318713D01*
G37*
G36*
X5794857Y3824833D02*
G01*
X5812942Y3824833D01*
X5830976Y3826713D01*
X5848705Y3830421D01*
X5865926Y3835908D01*
X5882538Y3843172D01*
X5898286Y3852062D01*
X5913069Y3862578D01*
X5926683Y3874515D01*
X5938977Y3887825D01*
X5949848Y3902303D01*
X5959144Y3917848D01*
X5966815Y3934256D01*
X5972810Y3951325D01*
X5976924Y3968953D01*
X5979261Y3986936D01*
X5979718Y4005021D01*
X5978347Y4023106D01*
X5975096Y4040886D01*
X5970016Y4058310D01*
X5963208Y4075074D01*
X5954674Y4091025D01*
X5944565Y4106062D01*
X5932982Y4119981D01*
X5920028Y4132630D01*
X5905804Y4143857D01*
X5890514Y4153560D01*
X5874359Y4161688D01*
X5857392Y4168038D01*
X5839866Y4172661D01*
X5821984Y4175455D01*
X5803900Y4176369D01*
X5785815Y4175455D01*
X5767933Y4172661D01*
X5750407Y4168038D01*
X5733440Y4161688D01*
X5717286Y4153560D01*
X5701995Y4143857D01*
X5687771Y4132630D01*
X5674817Y4119981D01*
X5663234Y4106062D01*
X5653125Y4091025D01*
X5644591Y4075074D01*
X5637784Y4058310D01*
X5632704Y4040886D01*
X5629452Y4023106D01*
X5628081Y4005021D01*
X5628538Y3986936D01*
X5630875Y3968953D01*
X5634990Y3951325D01*
X5640984Y3934256D01*
X5648655Y3917848D01*
X5657951Y3902303D01*
X5668822Y3887825D01*
X5681116Y3874515D01*
X5694730Y3862578D01*
X5709513Y3852062D01*
X5725261Y3843172D01*
X5741873Y3835908D01*
X5759094Y3830421D01*
X5776823Y3826713D01*
G37*
G36*
X5286857Y3824833D02*
G01*
X5304942Y3824833D01*
X5322976Y3826713D01*
X5340705Y3830421D01*
X5357926Y3835908D01*
X5374538Y3843172D01*
X5390286Y3852062D01*
X5405069Y3862578D01*
X5418683Y3874515D01*
X5430977Y3887825D01*
X5441848Y3902303D01*
X5451144Y3917848D01*
X5458815Y3934256D01*
X5464810Y3951325D01*
X5468924Y3968953D01*
X5471261Y3986936D01*
X5471718Y4005021D01*
X5470347Y4023106D01*
X5467096Y4040886D01*
X5462016Y4058310D01*
X5455208Y4075074D01*
X5446674Y4091025D01*
X5436565Y4106062D01*
X5424982Y4119981D01*
X5412028Y4132630D01*
X5397804Y4143857D01*
X5382514Y4153560D01*
X5366359Y4161688D01*
X5349392Y4168038D01*
X5331866Y4172661D01*
X5313984Y4175455D01*
X5295900Y4176369D01*
X5277815Y4175455D01*
X5259933Y4172661D01*
X5242407Y4168038D01*
X5225440Y4161688D01*
X5209286Y4153560D01*
X5193995Y4143857D01*
X5179771Y4132630D01*
X5166817Y4119981D01*
X5155234Y4106062D01*
X5145125Y4091025D01*
X5136591Y4075074D01*
X5129784Y4058310D01*
X5124704Y4040886D01*
X5121452Y4023106D01*
X5120081Y4005021D01*
X5120538Y3986936D01*
X5122875Y3968953D01*
X5126990Y3951325D01*
X5132984Y3934256D01*
X5140655Y3917848D01*
X5149951Y3902303D01*
X5160822Y3887825D01*
X5173116Y3874515D01*
X5186730Y3862578D01*
X5201513Y3852062D01*
X5217261Y3843172D01*
X5233873Y3835908D01*
X5251094Y3830421D01*
X5268823Y3826713D01*
G37*
G36*
X4234230Y3857396D02*
G01*
X4247286Y3864762D01*
X4262069Y3875278D01*
X4275683Y3887215D01*
X4287977Y3900525D01*
X4298848Y3915003D01*
X4308144Y3930548D01*
X4308754Y3931869D01*
X4234230Y3931869D01*
G37*
G36*
X4234230Y4094530D02*
G01*
X4308602Y4094530D01*
X4303674Y4103725D01*
X4293565Y4118762D01*
X4281982Y4132681D01*
X4269028Y4145330D01*
X4254804Y4156557D01*
X4239514Y4166260D01*
X4234230Y4168901D01*
G37*
G36*
X3136900Y4954117D02*
G01*
X3152089Y4955032D01*
X3167024Y4957775D01*
X3181553Y4962296D01*
X3195421Y4968544D01*
X3208426Y4976418D01*
X3220364Y4985766D01*
X3231134Y4996535D01*
X3240481Y5008473D01*
X3248355Y5021478D01*
X3254603Y5035346D01*
X3259124Y5049875D01*
X3261867Y5064810D01*
X3262782Y5080000D01*
X3261867Y5095189D01*
X3259124Y5110124D01*
X3254603Y5124653D01*
X3248355Y5138521D01*
X3240481Y5151526D01*
X3231134Y5163464D01*
X3220364Y5174234D01*
X3208426Y5183581D01*
X3195421Y5191455D01*
X3181553Y5197703D01*
X3167024Y5202224D01*
X3152089Y5204968D01*
X3136900Y5205882D01*
X3121710Y5204968D01*
X3106775Y5202224D01*
X3092246Y5197703D01*
X3078378Y5191455D01*
X3065373Y5183581D01*
X3053435Y5174234D01*
X3042666Y5163464D01*
X3033318Y5151526D01*
X3025444Y5138521D01*
X3019196Y5124653D01*
X3014675Y5110124D01*
X3011932Y5095189D01*
X3011017Y5080000D01*
X3011932Y5064810D01*
X3014675Y5049875D01*
X3019196Y5035346D01*
X3025444Y5021478D01*
X3033318Y5008473D01*
X3042666Y4996535D01*
X3053435Y4985766D01*
X3065373Y4976418D01*
X3078378Y4968544D01*
X3092246Y4962296D01*
X3106775Y4957775D01*
X3121710Y4955032D01*
G37*
G36*
X3739337Y5653379D02*
G01*
X3741521Y5654344D01*
X3754526Y5662218D01*
X3766464Y5671566D01*
X3777234Y5682335D01*
X3786581Y5694273D01*
X3794455Y5707278D01*
X3795420Y5709462D01*
X3739337Y5709462D01*
G37*
G36*
X3626662Y5653379D02*
G01*
X3626662Y5709462D01*
X3570579Y5709462D01*
X3571544Y5707278D01*
X3579418Y5694273D01*
X3588765Y5682335D01*
X3599535Y5671566D01*
X3611473Y5662218D01*
X3624478Y5654344D01*
G37*
G36*
X6184900Y5777992D02*
G01*
X6200292Y5778957D01*
X6215430Y5781700D01*
X6230112Y5786272D01*
X6244132Y5792622D01*
X6257340Y5800598D01*
X6269431Y5810097D01*
X6280302Y5820968D01*
X6289802Y5833059D01*
X6297777Y5846267D01*
X6304127Y5860288D01*
X6308699Y5874969D01*
X6311442Y5890107D01*
X6312408Y5905500D01*
X6311442Y5920892D01*
X6308699Y5936030D01*
X6304127Y5950712D01*
X6297777Y5964732D01*
X6289802Y5977940D01*
X6280302Y5990031D01*
X6269431Y6000902D01*
X6257340Y6010402D01*
X6244132Y6018377D01*
X6230112Y6024727D01*
X6215430Y6029299D01*
X6200292Y6032042D01*
X6184900Y6033008D01*
X6169507Y6032042D01*
X6154369Y6029299D01*
X6139688Y6024727D01*
X6125667Y6018377D01*
X6112459Y6010402D01*
X6100368Y6000902D01*
X6089497Y5990031D01*
X6079998Y5977940D01*
X6072022Y5964732D01*
X6065672Y5950712D01*
X6061100Y5936030D01*
X6058357Y5920892D01*
X6057392Y5905500D01*
X6058357Y5890107D01*
X6061100Y5874969D01*
X6065672Y5860288D01*
X6072022Y5846267D01*
X6079998Y5833059D01*
X6089497Y5820968D01*
X6100368Y5810097D01*
X6112459Y5800598D01*
X6125667Y5792622D01*
X6139688Y5786272D01*
X6154369Y5781700D01*
X6169507Y5778957D01*
G37*
G36*
X914400Y5790692D02*
G01*
X929792Y5791657D01*
X944930Y5794400D01*
X959612Y5798972D01*
X973632Y5805322D01*
X986840Y5813298D01*
X998931Y5822797D01*
X1009802Y5833668D01*
X1019302Y5845759D01*
X1027277Y5858967D01*
X1033627Y5872988D01*
X1038199Y5887669D01*
X1040942Y5902807D01*
X1041908Y5918200D01*
X1040942Y5933592D01*
X1038199Y5948730D01*
X1033627Y5963412D01*
X1027277Y5977432D01*
X1019302Y5990640D01*
X1009802Y6002731D01*
X998931Y6013602D01*
X986840Y6023102D01*
X973632Y6031077D01*
X959612Y6037427D01*
X944930Y6041999D01*
X929792Y6044742D01*
X914400Y6045708D01*
X899007Y6044742D01*
X883869Y6041999D01*
X869187Y6037427D01*
X855167Y6031077D01*
X841959Y6023102D01*
X829868Y6013602D01*
X818997Y6002731D01*
X809498Y5990640D01*
X801522Y5977432D01*
X795172Y5963412D01*
X790600Y5948730D01*
X787857Y5933592D01*
X786892Y5918200D01*
X787857Y5902807D01*
X790600Y5887669D01*
X795172Y5872988D01*
X801522Y5858967D01*
X809498Y5845759D01*
X818997Y5833668D01*
X829868Y5822797D01*
X841959Y5813298D01*
X855167Y5805322D01*
X869187Y5798972D01*
X883869Y5794400D01*
X899007Y5791657D01*
G37*

%LPD*%
D10*
X2590650Y3002000D02*
G01*
X2590650Y3750182D01*
X2754607Y3914139D01*
X2420901Y5109057D02*
G01*
X2492860Y5109057D01*
X3136902Y5753100D01*
X4152902Y4013200D02*
G01*
X4152902Y5295900D01*
X3683002Y5765800D01*
X3550185Y5384850D02*
G01*
X3942869Y4992166D01*
X3942869Y3715232D01*
X4152902Y3505200D01*
X3876118Y3072587D02*
G01*
X3876118Y4037812D01*
X3242795Y4671136D01*
X2443101Y4671136D01*
X3805379Y2734208D02*
G01*
X4162173Y2734208D01*
X4699307Y3271342D01*
X4699307Y5384495D01*
X4521202Y5562600D01*
X3550185Y2431008D02*
G01*
X3550185Y2650566D01*
X4521202Y3621582D01*
X4521202Y5054600D01*
X2703045Y5030952D02*
G01*
X2384529Y4712436D01*
X2384529Y3027730D01*
X2400124Y3012135D01*
X3644902Y2997200D02*
G01*
X3291258Y3350844D01*
X3291258Y3565931D01*
X3291232Y3565931D01*
X5537202Y5562600D02*
G01*
X5537202Y5306466D01*
X4747592Y4516856D01*
X4747592Y2572181D01*
X5029202Y5562600D02*
G01*
X4697910Y5893892D01*
X3483155Y5893892D01*
X1555041Y3965778D01*
X1555041Y3961180D01*
X1733730Y3547745D02*
G01*
X1733730Y3512388D01*
X2880845Y2365273D01*
X4631438Y2365273D01*
X5069613Y2803448D01*
X5069613Y3266211D01*
X5295902Y3492500D01*
X2731924Y2990265D02*
G01*
X2678889Y2937230D01*
X2389532Y2937230D01*
X1792302Y3534460D01*
X1792302Y3572002D01*
X1427609Y3936695D01*
X1427609Y5066715D01*
X3644902Y4013200D02*
G01*
X2731924Y3100222D01*
X2731924Y2990265D01*
D11*
G01*
X3136900Y5753100D03*
G01*
X3683000Y5765800D03*
D12*
G01*
X5295900Y2984500D03*
G01*
X5295900Y3492500D03*
G01*
X5295900Y4000500D03*
G01*
X5803900Y4000500D03*
G01*
X5803900Y3492500D03*
G01*
X5803900Y2984500D03*
G01*
X3644900Y2997200D03*
G01*
X3644900Y3505200D03*
G01*
X3644900Y4013200D03*
G01*
X4152900Y4013200D03*
G01*
X4152900Y3505200D03*
G01*
X4152900Y2997200D03*
G01*
X4521200Y5562600D03*
G01*
X5029200Y5562600D03*
G01*
X5537200Y5562600D03*
G01*
X5537200Y5054600D03*
G01*
X5029200Y5054600D03*
G01*
X4521200Y5054600D03*
D11*
G01*
X3136900Y5080000D03*
D13*
G01*
X2754604Y3914139D03*
G01*
X2590647Y3002000D03*
G01*
X2420899Y5109057D03*
G01*
X3550183Y5384850D03*
G01*
X2443099Y4671136D03*
G01*
X3876116Y3072587D03*
G01*
X3805377Y2734208D03*
G01*
X3550183Y2431008D03*
G01*
X2400122Y3012135D03*
G01*
X2703042Y5030952D03*
G01*
X3291230Y3565931D03*
G01*
X4747590Y2572181D03*
G01*
X1555038Y3961180D03*
G01*
X1733727Y3547745D03*
G01*
X1427606Y5066715D03*
G01*
X2731922Y2990265D03*
M02*
