G04 Layer: TopPasteMaskLayer*
G04 EasyEDA v6.5.46, 2025-07-23 17:18:39*
G04 4d1536246bbc4f27acf5b42e0466264c,7be8f16a26344db1bf46185b0a727cd7,10*
G04 Gerber Generator version 0.2*
G04 Scale: 100 percent, Rotated: No, Reflected: No *
G04 Dimensions in millimeters *
G04 leading zeros omitted , absolute positions ,4 integer and 5 decimal *
%FSLAX45Y45*%
%MOMM*%

%ADD10R,0.3500X1.5000*%
%ADD11R,1.5000X2.5000*%
%ADD12O,0.5739892X2.3880064*%
%ADD13R,2.0000X2.0000*%

%LPD*%
D10*
G01*
X1542694Y5267883D03*
G01*
X1592706Y5267883D03*
G01*
X1642694Y5267883D03*
G01*
X1692706Y5267883D03*
G01*
X1742694Y5267883D03*
G01*
X1792706Y5267883D03*
G01*
X1842693Y5267883D03*
G01*
X1892706Y5267883D03*
G01*
X1942693Y5267883D03*
G01*
X1992706Y5267883D03*
G01*
X2042693Y5267883D03*
G01*
X2092706Y5267883D03*
G01*
X2142693Y5267883D03*
G01*
X2192705Y5267883D03*
G01*
X2242693Y5267883D03*
G01*
X2292705Y5267883D03*
D11*
G01*
X1372717Y5577890D03*
G01*
X2462707Y5577890D03*
D12*
G01*
X2654300Y3763695D03*
G01*
X2527300Y3763695D03*
G01*
X2400300Y3763695D03*
G01*
X2273300Y3763695D03*
G01*
X2146300Y3763695D03*
G01*
X2019300Y3763695D03*
G01*
X1892300Y3763695D03*
G01*
X1765300Y3763695D03*
G01*
X1638300Y3763695D03*
G01*
X1511300Y3763695D03*
G01*
X1384300Y3763695D03*
G01*
X1257300Y3763695D03*
G01*
X2654300Y2814904D03*
G01*
X2527300Y2814904D03*
G01*
X2400300Y2814904D03*
G01*
X2273300Y2814904D03*
G01*
X2146300Y2814904D03*
G01*
X2019300Y2814904D03*
G01*
X1892300Y2814904D03*
G01*
X1765300Y2814904D03*
G01*
X1638300Y2814904D03*
G01*
X1511300Y2814904D03*
G01*
X1384300Y2814904D03*
G01*
X1257300Y2814904D03*
D13*
G01*
X1219200Y5600700D03*
G01*
X2603500Y5588000D03*
M02*
