G04 Layer: BottomSilkscreenLayer*
G04 EasyEDA v6.5.46, 2025-07-23 17:24:06*
G04 74a4e304ba1b453b8bde7bcb9ef7a0d0,7be8f16a26344db1bf46185b0a727cd7,10*
G04 Gerber Generator version 0.2*
G04 Scale: 100 percent, Rotated: No, Reflected: No *
G04 Dimensions in millimeters *
G04 leading zeros omitted , absolute positions ,4 integer and 5 decimal *
%FSLAX45Y45*%
%MOMM*%

%ADD10C,0.1500*%
%ADD11C,0.1524*%
%ADD12C,0.2540*%

%LPD*%
D10*
X1505389Y6230327D02*
G01*
X1499936Y6219418D01*
X1489026Y6208509D01*
X1478117Y6203053D01*
X1461754Y6197600D01*
X1434482Y6197600D01*
X1418117Y6203053D01*
X1407208Y6208509D01*
X1396298Y6219418D01*
X1390845Y6230327D01*
X1390845Y6252146D01*
X1396298Y6263053D01*
X1407208Y6273962D01*
X1418117Y6279418D01*
X1434482Y6284871D01*
X1461754Y6284871D01*
X1478117Y6279418D01*
X1489026Y6273962D01*
X1499936Y6263053D01*
X1505389Y6252146D01*
X1505389Y6230327D01*
X1505389Y6320871D02*
G01*
X1390845Y6320871D01*
X1467208Y6375417D02*
G01*
X1412664Y6320871D01*
X1434482Y6342689D02*
G01*
X1390845Y6380871D01*
X1489026Y6577236D02*
G01*
X1499936Y6566326D01*
X1505389Y6549964D01*
X1505389Y6528145D01*
X1499936Y6511780D01*
X1489026Y6500870D01*
X1478117Y6500870D01*
X1467208Y6506326D01*
X1461754Y6511780D01*
X1456298Y6522689D01*
X1445389Y6555417D01*
X1439936Y6566326D01*
X1434482Y6571780D01*
X1423573Y6577236D01*
X1407208Y6577236D01*
X1396298Y6566326D01*
X1390845Y6549964D01*
X1390845Y6528145D01*
X1396298Y6511780D01*
X1407208Y6500870D01*
X1505389Y6629598D02*
G01*
X1412664Y6629598D01*
X1396298Y6635054D01*
X1390845Y6645963D01*
X1390845Y6656872D01*
X1467208Y6613235D02*
G01*
X1467208Y6651416D01*
X1467208Y6758325D02*
G01*
X1390845Y6758325D01*
X1450845Y6758325D02*
G01*
X1461754Y6747416D01*
X1467208Y6736509D01*
X1467208Y6720144D01*
X1461754Y6709234D01*
X1450845Y6698325D01*
X1434482Y6692872D01*
X1423573Y6692872D01*
X1407208Y6698325D01*
X1396298Y6709234D01*
X1390845Y6720144D01*
X1390845Y6736509D01*
X1396298Y6747416D01*
X1407208Y6758325D01*
X1505389Y6810689D02*
G01*
X1412664Y6810689D01*
X1396298Y6816143D01*
X1390845Y6827052D01*
X1390845Y6837961D01*
X1467208Y6794327D02*
G01*
X1467208Y6832508D01*
X1434482Y6873961D02*
G01*
X1434482Y6939417D01*
X1445389Y6939417D01*
X1456298Y6933961D01*
X1461754Y6928507D01*
X1467208Y6917598D01*
X1467208Y6901235D01*
X1461754Y6890326D01*
X1450845Y6879417D01*
X1434482Y6873961D01*
X1423573Y6873961D01*
X1407208Y6879417D01*
X1396298Y6890326D01*
X1390845Y6901235D01*
X1390845Y6917598D01*
X1396298Y6928507D01*
X1407208Y6939417D01*
X1505389Y6975416D02*
G01*
X1423573Y6975416D01*
X1407208Y6980869D01*
X1396298Y6991779D01*
X1390845Y7008144D01*
X1390845Y7019053D01*
X1396298Y7035416D01*
X1407208Y7046325D01*
X1423573Y7051779D01*
X1505389Y7051779D01*
X1352989Y6172200D02*
G01*
X1238445Y6172200D01*
X1352989Y6248562D02*
G01*
X1238445Y6248562D01*
X1298445Y6172200D02*
G01*
X1298445Y6248562D01*
X1314808Y6350017D02*
G01*
X1238445Y6350017D01*
X1298445Y6350017D02*
G01*
X1309354Y6339108D01*
X1314808Y6328199D01*
X1314808Y6311836D01*
X1309354Y6300927D01*
X1298445Y6290017D01*
X1282082Y6284564D01*
X1271173Y6284564D01*
X1254808Y6290017D01*
X1243898Y6300927D01*
X1238445Y6311836D01*
X1238445Y6328199D01*
X1243898Y6339108D01*
X1254808Y6350017D01*
X1314808Y6413289D02*
G01*
X1309354Y6402382D01*
X1298445Y6391473D01*
X1282082Y6386017D01*
X1271173Y6386017D01*
X1254808Y6391473D01*
X1243898Y6402382D01*
X1238445Y6413289D01*
X1238445Y6429654D01*
X1243898Y6440563D01*
X1254808Y6451472D01*
X1271173Y6456926D01*
X1282082Y6456926D01*
X1298445Y6451472D01*
X1309354Y6440563D01*
X1314808Y6429654D01*
X1314808Y6413289D01*
X1314808Y6492925D02*
G01*
X1238445Y6492925D01*
X1282082Y6492925D02*
G01*
X1298445Y6498381D01*
X1309354Y6509291D01*
X1314808Y6520200D01*
X1314808Y6536562D01*
X1314808Y6638018D02*
G01*
X1238445Y6638018D01*
X1298445Y6638018D02*
G01*
X1309354Y6627108D01*
X1314808Y6616199D01*
X1314808Y6599834D01*
X1309354Y6588927D01*
X1298445Y6578018D01*
X1282082Y6572562D01*
X1271173Y6572562D01*
X1254808Y6578018D01*
X1243898Y6588927D01*
X1238445Y6599834D01*
X1238445Y6616199D01*
X1243898Y6627108D01*
X1254808Y6638018D01*
X1314808Y6674017D02*
G01*
X1238445Y6674017D01*
X1292989Y6674017D02*
G01*
X1309354Y6690380D01*
X1314808Y6701289D01*
X1314808Y6717652D01*
X1309354Y6728561D01*
X1292989Y6734017D01*
X1238445Y6734017D01*
X1325717Y6851835D02*
G01*
X1336626Y6846379D01*
X1347536Y6835470D01*
X1352989Y6824563D01*
X1352989Y6802744D01*
X1347536Y6791835D01*
X1336626Y6780926D01*
X1325717Y6775470D01*
X1309354Y6770016D01*
X1282082Y6770016D01*
X1265717Y6775470D01*
X1254808Y6780926D01*
X1243898Y6791835D01*
X1238445Y6802744D01*
X1238445Y6824563D01*
X1243898Y6835470D01*
X1254808Y6846379D01*
X1265717Y6851835D01*
X1282082Y6851835D01*
X1282082Y6824563D02*
G01*
X1282082Y6851835D01*
X1314808Y6887834D02*
G01*
X1260264Y6887834D01*
X1243898Y6893288D01*
X1238445Y6904197D01*
X1238445Y6920562D01*
X1243898Y6931472D01*
X1260264Y6947834D01*
X1314808Y6947834D02*
G01*
X1238445Y6947834D01*
X1314808Y7011108D02*
G01*
X1309354Y7000199D01*
X1298445Y6989290D01*
X1282082Y6983834D01*
X1271173Y6983834D01*
X1254808Y6989290D01*
X1243898Y7000199D01*
X1238445Y7011108D01*
X1238445Y7027471D01*
X1243898Y7038380D01*
X1254808Y7049289D01*
X1271173Y7054743D01*
X1282082Y7054743D01*
X1298445Y7049289D01*
X1309354Y7038380D01*
X1314808Y7027471D01*
X1314808Y7011108D01*
X1171526Y5727862D02*
G01*
X1182436Y5716953D01*
X1187889Y5700590D01*
X1187889Y5678771D01*
X1182436Y5662409D01*
X1171526Y5651500D01*
X1160617Y5651500D01*
X1149708Y5656953D01*
X1144254Y5662409D01*
X1138799Y5673318D01*
X1127889Y5706046D01*
X1122436Y5716953D01*
X1116982Y5722409D01*
X1106073Y5727862D01*
X1089708Y5727862D01*
X1078799Y5716953D01*
X1073345Y5700590D01*
X1073345Y5678771D01*
X1078799Y5662409D01*
X1089708Y5651500D01*
X1187889Y5763864D02*
G01*
X1073345Y5763864D01*
X1149708Y5818408D02*
G01*
X1095164Y5763864D01*
X1116982Y5785680D02*
G01*
X1073345Y5823864D01*
X1187889Y5859863D02*
G01*
X1182436Y5865317D01*
X1187889Y5870773D01*
X1193345Y5865317D01*
X1187889Y5859863D01*
X1149708Y5865317D02*
G01*
X1073345Y5865317D01*
X1149708Y5906772D02*
G01*
X1073345Y5906772D01*
X1127889Y5906772D02*
G01*
X1144254Y5923135D01*
X1149708Y5934044D01*
X1149708Y5950409D01*
X1144254Y5961316D01*
X1127889Y5966772D01*
X1073345Y5966772D01*
X1171526Y6163134D02*
G01*
X1182436Y6152225D01*
X1187889Y6135862D01*
X1187889Y6114044D01*
X1182436Y6097681D01*
X1171526Y6086772D01*
X1160617Y6086772D01*
X1149708Y6092225D01*
X1144254Y6097681D01*
X1138799Y6108590D01*
X1127889Y6141316D01*
X1122436Y6152225D01*
X1116982Y6157681D01*
X1106073Y6163134D01*
X1089708Y6163134D01*
X1078799Y6152225D01*
X1073345Y6135862D01*
X1073345Y6114044D01*
X1078799Y6097681D01*
X1089708Y6086772D01*
X1116982Y6199134D02*
G01*
X1116982Y6264589D01*
X1127889Y6264589D01*
X1138799Y6259134D01*
X1144254Y6253680D01*
X1149708Y6242771D01*
X1149708Y6226408D01*
X1144254Y6215499D01*
X1133345Y6204590D01*
X1116982Y6199134D01*
X1106073Y6199134D01*
X1089708Y6204590D01*
X1078799Y6215499D01*
X1073345Y6226408D01*
X1073345Y6242771D01*
X1078799Y6253680D01*
X1089708Y6264589D01*
X1149708Y6300589D02*
G01*
X1073345Y6300589D01*
X1127889Y6300589D02*
G01*
X1144254Y6316952D01*
X1149708Y6327861D01*
X1149708Y6344226D01*
X1144254Y6355135D01*
X1127889Y6360589D01*
X1073345Y6360589D01*
X1133345Y6456588D02*
G01*
X1144254Y6451135D01*
X1149708Y6434769D01*
X1149708Y6418407D01*
X1144254Y6402044D01*
X1133345Y6396588D01*
X1122436Y6402044D01*
X1116982Y6412953D01*
X1111526Y6440225D01*
X1106073Y6451135D01*
X1095164Y6456588D01*
X1089708Y6456588D01*
X1078799Y6451135D01*
X1073345Y6434769D01*
X1073345Y6418407D01*
X1078799Y6402044D01*
X1089708Y6396588D01*
X1149708Y6519862D02*
G01*
X1144254Y6508953D01*
X1133345Y6498043D01*
X1116982Y6492587D01*
X1106073Y6492587D01*
X1089708Y6498043D01*
X1078799Y6508953D01*
X1073345Y6519862D01*
X1073345Y6536225D01*
X1078799Y6547134D01*
X1089708Y6558043D01*
X1106073Y6563497D01*
X1116982Y6563497D01*
X1133345Y6558043D01*
X1144254Y6547134D01*
X1149708Y6536225D01*
X1149708Y6519862D01*
X1149708Y6599498D02*
G01*
X1073345Y6599498D01*
X1116982Y6599498D02*
G01*
X1133345Y6604952D01*
X1144254Y6615861D01*
X1149708Y6626771D01*
X1149708Y6643133D01*
X1187889Y6763133D02*
G01*
X1073345Y6806770D01*
X1187889Y6850407D02*
G01*
X1073345Y6806770D01*
X1166073Y6886407D02*
G01*
X1171526Y6897316D01*
X1187889Y6913679D01*
X1073345Y6913679D01*
X1100617Y6955134D02*
G01*
X1095164Y6949678D01*
X1089708Y6955134D01*
X1095164Y6960588D01*
X1100617Y6955134D01*
X1160617Y7002043D02*
G01*
X1166073Y7002043D01*
X1176982Y7007497D01*
X1182436Y7012952D01*
X1187889Y7023862D01*
X1187889Y7045678D01*
X1182436Y7056587D01*
X1176982Y7062043D01*
X1166073Y7067497D01*
X1155164Y7067497D01*
X1144254Y7062043D01*
X1127889Y7051133D01*
X1073345Y6996587D01*
X1073345Y7072952D01*
D11*
X2624587Y6971141D02*
G01*
X2619507Y6960727D01*
X2609093Y6950313D01*
X2598679Y6944979D01*
X2582931Y6939899D01*
X2557023Y6939899D01*
X2541529Y6944979D01*
X2531115Y6950313D01*
X2520701Y6960727D01*
X2515621Y6971141D01*
X2515621Y6991969D01*
X2520701Y7002129D01*
X2531115Y7012543D01*
X2541529Y7017877D01*
X2557023Y7022957D01*
X2582931Y7022957D01*
X2598679Y7017877D01*
X2609093Y7012543D01*
X2619507Y7002129D01*
X2624587Y6991969D01*
X2624587Y6971141D01*
X2536195Y6986635D02*
G01*
X2505207Y7017877D01*
X2603759Y7057247D02*
G01*
X2609093Y7067661D01*
X2624587Y7083409D01*
X2515621Y7083409D01*
X2592577Y7390892D02*
G01*
X2587243Y7380478D01*
X2576829Y7370063D01*
X2566670Y7364984D01*
X2545841Y7364984D01*
X2535427Y7370063D01*
X2525013Y7380478D01*
X2519679Y7390892D01*
X2514600Y7406639D01*
X2514600Y7432547D01*
X2519679Y7448042D01*
X2525013Y7458455D01*
X2535427Y7468870D01*
X2545841Y7473950D01*
X2566670Y7473950D01*
X2576829Y7468870D01*
X2587243Y7458455D01*
X2592577Y7448042D01*
X2626868Y7385812D02*
G01*
X2637281Y7380478D01*
X2652775Y7364984D01*
X2652775Y7473950D01*
X2514600Y5828284D02*
G01*
X2514600Y5937250D01*
X2514600Y5828284D02*
G01*
X2561336Y5828284D01*
X2576829Y5833363D01*
X2582163Y5838697D01*
X2587243Y5849112D01*
X2587243Y5859526D01*
X2582163Y5869939D01*
X2576829Y5875020D01*
X2561336Y5880100D01*
X2514600Y5880100D01*
X2550922Y5880100D02*
G01*
X2587243Y5937250D01*
X2621534Y5849112D02*
G01*
X2631947Y5843778D01*
X2647695Y5828284D01*
X2647695Y5937250D01*
X2501900Y5625084D02*
G01*
X2501900Y5734050D01*
X2501900Y5625084D02*
G01*
X2548636Y5625084D01*
X2564129Y5630163D01*
X2569463Y5635497D01*
X2574543Y5645912D01*
X2574543Y5656326D01*
X2569463Y5666739D01*
X2564129Y5671820D01*
X2548636Y5676900D01*
X2501900Y5676900D01*
X2538222Y5676900D02*
G01*
X2574543Y5734050D01*
X2614168Y5650992D02*
G01*
X2614168Y5645912D01*
X2619247Y5635497D01*
X2624581Y5630163D01*
X2634995Y5625084D01*
X2655570Y5625084D01*
X2665984Y5630163D01*
X2671318Y5635497D01*
X2676397Y5645912D01*
X2676397Y5656326D01*
X2671318Y5666739D01*
X2660904Y5682234D01*
X2608834Y5734050D01*
X2681731Y5734050D01*
X2514600Y5434584D02*
G01*
X2514600Y5543550D01*
X2514600Y5434584D02*
G01*
X2561336Y5434584D01*
X2576829Y5439663D01*
X2582163Y5444997D01*
X2587243Y5455412D01*
X2587243Y5465826D01*
X2582163Y5476239D01*
X2576829Y5481320D01*
X2561336Y5486400D01*
X2514600Y5486400D01*
X2550922Y5486400D02*
G01*
X2587243Y5543550D01*
X2631947Y5434584D02*
G01*
X2689097Y5434584D01*
X2658109Y5476239D01*
X2673604Y5476239D01*
X2684018Y5481320D01*
X2689097Y5486400D01*
X2694431Y5502147D01*
X2694431Y5512562D01*
X2689097Y5528055D01*
X2678684Y5538470D01*
X2663190Y5543550D01*
X2647695Y5543550D01*
X2631947Y5538470D01*
X2626868Y5533389D01*
X2621534Y5522976D01*
X2679700Y5360415D02*
G01*
X2679700Y5251450D01*
X2679700Y5360415D02*
G01*
X2632963Y5360415D01*
X2617470Y5355336D01*
X2612136Y5350002D01*
X2607056Y5339587D01*
X2607056Y5329173D01*
X2612136Y5318760D01*
X2617470Y5313679D01*
X2632963Y5308600D01*
X2679700Y5308600D01*
X2643377Y5308600D02*
G01*
X2607056Y5251450D01*
X2520695Y5360415D02*
G01*
X2572765Y5287771D01*
X2494788Y5287771D01*
X2520695Y5360415D02*
G01*
X2520695Y5251450D01*
X1906015Y6273800D02*
G01*
X1797050Y6273800D01*
X1906015Y6273800D02*
G01*
X1906015Y6320536D01*
X1900936Y6336029D01*
X1895602Y6341363D01*
X1885187Y6346444D01*
X1874773Y6346444D01*
X1864360Y6341363D01*
X1859279Y6336029D01*
X1854200Y6320536D01*
X1854200Y6273800D01*
X1854200Y6310121D02*
G01*
X1797050Y6346444D01*
X1906015Y6443218D02*
G01*
X1906015Y6391147D01*
X1859279Y6386068D01*
X1864360Y6391147D01*
X1869694Y6406895D01*
X1869694Y6422389D01*
X1864360Y6437884D01*
X1854200Y6448297D01*
X1838452Y6453631D01*
X1828037Y6453631D01*
X1812544Y6448297D01*
X1802129Y6437884D01*
X1797050Y6422389D01*
X1797050Y6406895D01*
X1802129Y6391147D01*
X1807210Y6386068D01*
X1817623Y6380734D01*
X2716771Y6392100D02*
G01*
X2825737Y6392100D01*
X2716771Y6392100D02*
G01*
X2716771Y6324536D01*
X2768587Y6392100D02*
G01*
X2768587Y6350444D01*
X2716771Y6290246D02*
G01*
X2825737Y6290246D01*
X2716771Y6290246D02*
G01*
X2716771Y6243510D01*
X2721851Y6228016D01*
X2727185Y6222682D01*
X2737599Y6217602D01*
X2753093Y6217602D01*
X2763507Y6222682D01*
X2768587Y6228016D01*
X2773921Y6243510D01*
X2773921Y6290246D01*
X2742679Y6105334D02*
G01*
X2732265Y6110414D01*
X2721851Y6120828D01*
X2716771Y6131242D01*
X2716771Y6152070D01*
X2721851Y6162484D01*
X2732265Y6172898D01*
X2742679Y6177978D01*
X2758427Y6183312D01*
X2784335Y6183312D01*
X2799829Y6177978D01*
X2810243Y6172898D01*
X2820657Y6162484D01*
X2825737Y6152070D01*
X2825737Y6131242D01*
X2820657Y6120828D01*
X2810243Y6110414D01*
X2799829Y6105334D01*
X2737599Y6071044D02*
G01*
X2732265Y6060630D01*
X2716771Y6045136D01*
X2825737Y6045136D01*
G36*
X3048000Y5938723D02*
G01*
X2971800Y5913323D01*
X3048000Y5887923D01*
G37*
D12*
X2387699Y6876900D02*
G01*
X2474099Y6876900D01*
X2474099Y6876900D02*
G01*
X2474099Y6976902D01*
X2292703Y7016899D02*
G01*
X2355496Y7016899D01*
X2174100Y6876900D02*
G01*
X2260500Y6876900D01*
X2174100Y6876900D02*
G01*
X2174100Y6976902D01*
D11*
X2425730Y7379639D02*
G01*
X2346721Y7379639D01*
X2346721Y7479360D02*
G01*
X2425730Y7479360D01*
X2440970Y7464120D02*
G01*
X2440970Y7394879D01*
X2222469Y7379639D02*
G01*
X2301478Y7379639D01*
X2301478Y7479360D02*
G01*
X2222469Y7479360D01*
X2207229Y7464120D02*
G01*
X2207229Y7394879D01*
X2326878Y5929960D02*
G01*
X2255075Y5929960D01*
X2255075Y5830239D01*
X2326878Y5830239D01*
X2372121Y5929960D02*
G01*
X2443924Y5929960D01*
X2443924Y5830239D01*
X2372121Y5830239D01*
X2326878Y5739460D02*
G01*
X2255075Y5739460D01*
X2255075Y5639739D01*
X2326878Y5639739D01*
X2372121Y5739460D02*
G01*
X2443924Y5739460D01*
X2443924Y5639739D01*
X2372121Y5639739D01*
X2326878Y5561660D02*
G01*
X2255075Y5561660D01*
X2255075Y5461939D01*
X2326878Y5461939D01*
X2372121Y5561660D02*
G01*
X2443924Y5561660D01*
X2443924Y5461939D01*
X2372121Y5461939D01*
X2359421Y5258739D02*
G01*
X2431224Y5258739D01*
X2431224Y5358460D01*
X2359421Y5358460D01*
X2314178Y5258739D02*
G01*
X2242375Y5258739D01*
X2242375Y5358460D01*
X2314178Y5358460D01*
X1969439Y6340078D02*
G01*
X1969439Y6268275D01*
X2069160Y6268275D01*
X2069160Y6340078D01*
X1969439Y6385321D02*
G01*
X1969439Y6457124D01*
X2069160Y6457124D01*
X2069160Y6385321D01*
D12*
X3467097Y6952406D02*
G01*
X3467097Y5798418D01*
X2946397Y6952394D02*
G01*
X2946397Y6791020D01*
X3105675Y6952394D02*
G01*
X2946397Y6952394D01*
X3467097Y6952394D02*
G01*
X3401905Y6952394D01*
X2946397Y5959797D02*
G01*
X2946397Y5798418D01*
X3105680Y5798418D02*
G01*
X2946397Y5798418D01*
X3467097Y5798418D02*
G01*
X3401910Y5798418D01*
D11*
G75*
G01*
X2425730Y7479360D02*
G02*
X2440970Y7464120I0J-15240D01*
G75*
G01*
X2440970Y7394880D02*
G02*
X2425730Y7379640I-15240J0D01*
G75*
G01*
X2222470Y7479360D02*
G03*
X2207230Y7464120I0J-15240D01*
G75*
G01*
X2207230Y7394880D02*
G03*
X2222470Y7379640I15240J0D01*
M02*
